<?xml version="1.0" encoding="utf-8"?>
<svg version="1.1" xmlns:xlink="http://www.w3.org/1999/xlink" width="22px" height="22px" xmlns="http://www.w3.org/2000/svg">
  <g transform="matrix(1 0 0 1 -138 -99 )">
    <path d="M 19.0343137254902 17.0796568627451  C 19.2859477124183 16.828022875817  19.4117647058824 16.5269607843137  19.4117647058824 16.1764705882353  C 19.4117647058824 15.8169934640523  19.2859477124183 15.5114379084967  19.0343137254902 15.2598039215686  L 16.2303921568627 12.4558823529412  C 15.9787581699346 12.2042483660131  15.6732026143791 12.078431372549  15.3137254901961 12.078431372549  C 14.9362745098039 12.078431372549  14.6127450980392 12.2222222222222  14.343137254902 12.5098039215686  C 14.3700980392157 12.5367647058824  14.4554738562092 12.6198937908497  14.5992647058824 12.7591911764706  C 14.7430555555556 12.8984885620915  14.8396650326797 12.9950980392157  14.8890931372549 13.0490196078431  C 14.9385212418301 13.1029411764706  15.0059232026144 13.1883169934641  15.0912990196078 13.3051470588235  C 15.1766748366013 13.421977124183  15.235089869281 13.5365604575163  15.2665441176471 13.6488970588235  C 15.2979983660131 13.7612336601307  15.3137254901961 13.8848039215686  15.3137254901961 14.0196078431373  C 15.3137254901961 14.3790849673203  15.187908496732 14.6846405228758  14.9362745098039 14.9362745098039  C 14.6846405228758 15.187908496732  14.3790849673203 15.3137254901961  14.0196078431373 15.3137254901961  C 13.8848039215686 15.3137254901961  13.7612336601307 15.2979983660131  13.6488970588235 15.2665441176471  C 13.5365604575163 15.235089869281  13.421977124183 15.1766748366013  13.3051470588235 15.0912990196078  C 13.1883169934641 15.0059232026144  13.1029411764706 14.9385212418301  13.0490196078431 14.8890931372549  C 12.9950980392157 14.8396650326797  12.8984885620915 14.7430555555556  12.7591911764706 14.5992647058824  C 12.6198937908497 14.4554738562091  12.5367647058824 14.3700980392157  12.5098039215686 14.343137254902  C 12.2132352941176 14.6217320261438  12.0649509803922 14.9497549019608  12.0649509803922 15.3272058823529  C 12.0649509803922 15.6866830065359  12.1907679738562 15.9922385620915  12.4424019607843 16.2438725490196  L 15.219362745098 19.0343137254902  C 15.4620098039216 19.2769607843137  15.7675653594771 19.3982843137255  16.1360294117647 19.3982843137255  C 16.4955065359477 19.3982843137255  16.8010620915033 19.281454248366  17.0526960784314 19.0477941176471  L 19.0343137254902 17.0796568627451  Z M 9.49019607843137 7.65686274509804  C 9.78676470588235 7.37826797385621  9.93504901960784 7.05024509803922  9.93504901960784 6.67279411764706  C 9.93504901960784 6.31331699346405  9.80923202614379 6.00776143790849  9.55759803921569 5.75612745098039  L 6.78063725490196 2.9656862745098  C 6.52900326797386 2.7140522875817  6.2234477124183 2.58823529411765  5.86397058823529 2.58823529411765  C 5.51348039215686 2.58823529411765  5.20792483660131 2.70955882352941  4.94730392156863 2.95220588235294  L 2.9656862745098 4.9203431372549  C 2.7140522875817 5.17197712418301  2.58823529411765 5.47303921568627  2.58823529411765 5.8235294117647  C 2.58823529411765 6.18300653594771  2.7140522875817 6.48856209150327  2.9656862745098 6.74019607843137  L 5.76960784313725 9.54411764705882  C 6.01225490196078 9.78676470588235  6.31781045751634 9.90808823529412  6.68627450980392 9.90808823529412  C 7.06372549019608 9.90808823529412  7.38725490196078 9.7687908496732  7.65686274509804 9.49019607843137  C 7.62990196078431 9.46323529411764  7.54452614379085 9.38010620915033  7.40073529411765 9.24080882352941  C 7.25694444444445 9.1015114379085  7.16033496732026 9.00490196078431  7.1109068627451 8.95098039215686  C 7.06147875816993 8.89705882352941  6.99407679738562 8.81168300653595  6.90870098039216 8.69485294117647  C 6.82332516339869 8.57802287581699  6.76491013071895 8.46343954248366  6.73345588235294 8.35110294117647  C 6.70200163398693 8.23876633986928  6.68627450980392 8.11519607843137  6.68627450980392 7.98039215686275  C 6.68627450980392 7.62091503267974  6.81209150326797 7.31535947712418  7.06372549019608 7.06372549019608  C 7.31535947712418 6.81209150326797  7.62091503267974 6.68627450980392  7.98039215686275 6.68627450980392  C 8.11519607843137 6.68627450980392  8.23876633986928 6.70200163398693  8.35110294117647 6.73345588235294  C 8.46343954248366 6.76491013071895  8.57802287581699 6.82332516339869  8.69485294117647 6.90870098039216  C 8.81168300653595 6.99407679738562  8.89705882352941 7.06147875816993  8.95098039215686 7.1109068627451  C 9.00490196078431 7.16033496732026  9.1015114379085 7.25694444444444  9.24080882352941 7.40073529411765  C 9.38010620915033 7.54452614379085  9.46323529411765 7.62990196078431  9.49019607843137 7.65686274509804  Z M 20.8676470588235 13.4264705882353  C 21.6225490196078 14.1813725490196  22 15.0980392156863  22 16.1764705882353  C 22 17.2549019607843  21.6180555555556 18.1670751633987  20.8541666666667 18.9129901960784  L 18.8725490196078 20.8811274509804  C 18.1266339869281 21.6270424836601  17.2144607843137 22  16.1360294117647 22  C 15.0486111111111 22  14.1319444444444 21.6180555555556  13.3860294117647 20.8541666666667  L 10.609068627451 18.0637254901961  C 9.86315359477124 17.3178104575163  9.49019607843137 16.405637254902  9.49019607843137 15.3272058823529  C 9.49019607843137 14.2218137254902  9.88562091503268 13.2826797385621  10.6764705882353 12.5098039215686  L 9.49019607843137 11.3235294117647  C 8.71732026143791 12.1143790849673  7.78267973856209 12.5098039215686  6.68627450980392 12.5098039215686  C 5.6078431372549 12.5098039215686  4.69117647058824 12.1323529411765  3.93627450980392 11.3774509803922  L 1.13235294117647 8.5735294117647  C 0.377450980392157 7.81862745098039  0 6.90196078431373  0 5.8235294117647  C 0 4.74509803921569  0.381944444444444 3.83292483660131  1.14583333333333 3.08700980392157  L 3.12745098039216 1.11887254901961  C 3.8733660130719 0.372957516339868  4.78553921568627 0  5.86397058823529 0  C 6.95138888888889 0  7.86805555555556 0.381944444444443  8.61397058823529 1.14583333333333  L 11.390931372549 3.93627450980392  C 12.1368464052288 4.68218954248366  12.5098039215686 5.59436274509804  12.5098039215686 6.67279411764706  C 12.5098039215686 7.7781862745098  12.1143790849673 8.71732026143791  11.3235294117647 9.49019607843137  L 12.5098039215686 10.6764705882353  C 13.2826797385621 9.88562091503268  14.2173202614379 9.49019607843137  15.3137254901961 9.49019607843137  C 16.3921568627451 9.49019607843137  17.3088235294118 9.86764705882353  18.0637254901961 10.6225490196078  L 20.8676470588235 13.4264705882353  Z " fill-rule="nonzero" fill="#d7d7d7" stroke="none" transform="matrix(1 0 0 1 138 99 )" />
  </g>
</svg>