<?xml version="1.0" encoding="utf-8"?>
<svg version="1.1" xmlns:xlink="http://www.w3.org/1999/xlink" width="25px" height="22px" xmlns="http://www.w3.org/2000/svg">
  <g transform="matrix(1 0 0 1 -283 -98 )">
    <path d="M 8.92857142857143 1.83333333333333  L 8.92857142857143 3.66666666666667  L 16.0714285714286 3.66666666666667  L 16.0714285714286 1.83333333333333  L 8.92857142857143 1.83333333333333  Z M 15.625 12.8333333333333  L 25 12.8333333333333  L 25 19.7083333333333  C 25 20.3385416666667  24.7814360119048 20.8780381944444  24.3443080357143 21.3268229166667  C 23.9071800595238 21.7756076388889  23.3816964285714 22  22.7678571428571 22  L 2.23214285714286 22  C 1.61830357142857 22  1.09281994047619 21.7756076388889  0.655691964285714 21.3268229166667  C 0.218563988095238 20.8780381944444  0 20.3385416666667  0 19.7083333333333  L 0 12.8333333333333  L 9.375 12.8333333333333  L 9.375 15.125  C 9.375 15.3732638888889  9.46335565476191 15.5881076388889  9.64006696428571 15.76953125  C 9.81677827380953 15.9509548611111  10.0260416666667 16.0416666666667  10.2678571428571 16.0416666666667  L 14.7321428571429 16.0416666666667  C 14.9739583333333 16.0416666666667  15.1832217261905 15.9509548611111  15.3599330357143 15.76953125  C 15.5366443452381 15.5881076388889  15.625 15.3732638888889  15.625 15.125  L 15.625 12.8333333333333  Z M 10.7142857142857 12.8333333333333  L 14.2857142857143 12.8333333333333  L 14.2857142857143 14.6666666666667  L 10.7142857142857 14.6666666666667  L 10.7142857142857 12.8333333333333  Z M 24.3443080357143 4.33984375  C 24.7814360119048 4.78862847222222  25 5.328125  25 5.95833333333333  L 25 11.4583333333333  L 0 11.4583333333333  L 0 5.95833333333333  C 0 5.328125  0.218563988095238 4.78862847222222  0.655691964285714 4.33984375  C 1.09281994047619 3.89105902777778  1.61830357142857 3.66666666666667  2.23214285714286 3.66666666666667  L 7.14285714285714 3.66666666666667  L 7.14285714285714 1.375  C 7.14285714285714 0.993055555555554  7.27306547619048 0.668402777777775  7.53348214285714 0.401041666666666  C 7.79389880952381 0.133680555555557  8.11011904761905 0  8.48214285714286 0  L 16.5178571428571 0  C 16.889880952381 0  17.2061011904762 0.133680555555557  17.4665178571429 0.401041666666666  C 17.7269345238095 0.668402777777775  17.8571428571429 0.993055555555554  17.8571428571429 1.375  L 17.8571428571429 3.66666666666667  L 22.7678571428571 3.66666666666667  C 23.3816964285714 3.66666666666667  23.9071800595238 3.89105902777778  24.3443080357143 4.33984375  Z " fill-rule="nonzero" fill="#d7d7d7" stroke="none" transform="matrix(1 0 0 1 283 98 )" />
  </g>
</svg>