<?xml version="1.0" encoding="utf-8"?>
<svg version="1.1" xmlns:xlink="http://www.w3.org/1999/xlink" width="12px" height="11px" xmlns="http://www.w3.org/2000/svg">
  <g transform="matrix(1 0 0 1 -9 -7 )">
    <path d="M 4.89583333333333 6.41666666666667  L 6.65972222222222 6.41666666666667  L 7.10416666666667 4.58333333333333  L 5.34027777777778 4.58333333333333  L 4.89583333333333 6.41666666666667  Z M 11.9513888888889 2.60677083333333  C 11.9930555555556 2.6640625  12.0069444444444 2.73090277777778  11.9930555555556 2.80729166666667  L 11.6041666666667 4.41145833333333  C 11.5717592592593 4.52604166666667  11.5 4.58333333333333  11.3888888888889 4.58333333333333  L 9.11805555555556 4.58333333333333  L 8.67361111111111 6.41666666666667  L 10.8333333333333 6.41666666666667  C 10.9027777777778 6.41666666666667  10.9606481481481 6.4453125  11.0069444444444 6.50260416666667  C 11.0532407407407 6.56944444444444  11.0671296296296 6.63628472222222  11.0486111111111 6.703125  L 10.6597222222222 8.30729166666667  C 10.6365740740741 8.421875  10.5648148148148 8.47916666666667  10.4444444444444 8.47916666666667  L 8.17361111111111 8.47916666666667  L 7.61111111111111 10.828125  C 7.57870370370371 10.9427083333333  7.50694444444444 11  7.39583333333333 11  L 5.84027777777778 11  C 5.7662037037037 11  5.70601851851852 10.9713541666667  5.65972222222222 10.9140625  C 5.61805555555556 10.8567708333333  5.60416666666667 10.7899305555556  5.61805555555556 10.7135416666667  L 6.15972222222222 8.47916666666667  L 4.39583333333333 8.47916666666667  L 3.83333333333333 10.828125  C 3.80092592592593 10.9427083333333  3.72916666666667 11  3.61805555555556 11  L 2.05555555555556 11  C 1.98611111111111 11  1.92824074074074 10.9713541666667  1.88194444444444 10.9140625  C 1.84027777777778 10.8567708333333  1.82638888888889 10.7899305555556  1.84027777777778 10.7135416666667  L 2.38194444444444 8.47916666666667  L 0.222222222222222 8.47916666666667  C 0.152777777777778 8.47916666666667  0.0949074074074074 8.45052083333333  0.0486111111111111 8.39322916666667  C 0.00694444444444444 8.3359375  -0.00694444444444442 8.26909722222222  0.00694444444444444 8.19270833333333  L 0.395833333333333 6.58854166666667  C 0.428240740740741 6.47395833333333  0.5 6.41666666666667  0.611111111111111 6.41666666666667  L 2.88194444444444 6.41666666666667  L 3.32638888888889 4.58333333333333  L 1.16666666666667 4.58333333333333  C 1.09722222222222 4.58333333333333  1.03935185185185 4.5546875  0.993055555555556 4.49739583333333  C 0.946759259259259 4.43055555555556  0.93287037037037 4.36371527777778  0.951388888888889 4.296875  L 1.34027777777778 2.69270833333333  C 1.36342592592593 2.578125  1.43518518518519 2.52083333333333  1.55555555555556 2.52083333333333  L 3.82638888888889 2.52083333333333  L 4.38888888888889 0.171875  C 4.4212962962963 0.0572916666666671  4.49537037037037 0  4.61111111111111 0  L 6.16666666666667 0  C 6.23611111111111 0  6.29398148148148 0.0286458333333329  6.34027777777778 0.0859375  C 6.38194444444444 0.143229166666667  6.39583333333333 0.210069444444444  6.38194444444444 0.286458333333333  L 5.84027777777778 2.52083333333333  L 7.60416666666667 2.52083333333333  L 8.16666666666667 0.171875  C 8.19907407407407 0.0572916666666671  8.27314814814815 0  8.38888888888889 0  L 9.94444444444444 0  C 10.0138888888889 0  10.0717592592593 0.0286458333333329  10.1180555555556 0.0859375  C 10.1597222222222 0.143229166666667  10.1736111111111 0.210069444444444  10.1597222222222 0.286458333333333  L 9.61805555555556 2.52083333333333  L 11.7777777777778 2.52083333333333  C 11.8472222222222 2.52083333333333  11.9050925925926 2.54947916666667  11.9513888888889 2.60677083333333  Z " fill-rule="nonzero" fill="#000000" stroke="none" transform="matrix(1 0 0 1 9 7 )" />
  </g>
</svg>