<?xml version="1.0" encoding="utf-8"?>
<svg version="1.1" xmlns:xlink="http://www.w3.org/1999/xlink" width="8px" height="6px" xmlns="http://www.w3.org/2000/svg">
  <g transform="matrix(1 0 0 1 -284 -37 )">
    <path d="M 7.8515625 4.86458333333333  C 7.95052083333333 4.99652777777778  8 5.15277777777778  8 5.33333333333333  C 8 5.51388888888889  7.95052083333333 5.67013888888889  7.8515625 5.80208333333333  C 7.75260416666667 5.93402777777778  7.63541666666667 6  7.5 6  L 0.5 6  C 0.364583333333333 6  0.247395833333333 5.93402777777778  0.1484375 5.80208333333333  C 0.0494791666666667 5.67013888888889  0 5.51388888888889  0 5.33333333333333  C 0 5.15277777777778  0.0494791666666667 4.99652777777778  0.1484375 4.86458333333333  L 3.6484375 0.197916666666667  C 3.74739583333333 0.0659722222222214  3.86458333333333 0  4 0  C 4.13541666666667 0  4.25260416666667 0.0659722222222214  4.3515625 0.197916666666667  L 7.8515625 4.86458333333333  Z " fill-rule="nonzero" fill="#aaaaaa" stroke="none" transform="matrix(1 0 0 1 284 37 )" />
  </g>
</svg>