<?xml version="1.0" encoding="utf-8"?>
<svg version="1.1" xmlns:xlink="http://www.w3.org/1999/xlink" width="251px" height="184px" xmlns="http://www.w3.org/2000/svg">
  <g transform="matrix(1 0 0 1 -881 -51 )">
    <path d="M 881.5 55  A 3.5 3.5 0 0 1 885 51.5 L 1128 51.5  A 3.5 3.5 0 0 1 1131.5 55 L 1131.5 231  A 3.5 3.5 0 0 1 1128 234.5 L 885 234.5  A 3.5 3.5 0 0 1 881.5 231 L 881.5 55  Z " fill-rule="nonzero" fill="#ffffff" stroke="none" />
    <path d="M 881.5 55  A 3.5 3.5 0 0 1 885 51.5 L 1128 51.5  A 3.5 3.5 0 0 1 1131.5 55 L 1131.5 231  A 3.5 3.5 0 0 1 1128 234.5 L 885 234.5  A 3.5 3.5 0 0 1 881.5 231 L 881.5 55  Z " stroke-width="1" stroke="#409eff" fill="none" />
  </g>
</svg>