<?xml version="1.0" encoding="utf-8"?>
<svg version="1.1" xmlns:xlink="http://www.w3.org/1999/xlink" width="15px" height="12px" xmlns="http://www.w3.org/2000/svg">
  <g transform="matrix(1 0 0 1 -878 -287 )">
    <path d="M 6.11979166666667 7  L 8.32465277777778 7  L 8.88020833333333 5  L 6.67534722222222 5  L 6.11979166666667 7  Z M 14.9392361111111 2.84375  C 14.9913194444444 2.90625  15.0086805555556 2.97916666666667  14.9913194444444 3.0625  L 14.5052083333333 4.8125  C 14.4646990740741 4.9375  14.375 5  14.2361111111111 5  L 11.3975694444444 5  L 10.8420138888889 7  L 13.5416666666667 7  C 13.6284722222222 7  13.7008101851852 7.03125  13.7586805555556 7.09375  C 13.8165509259259 7.16666666666667  13.833912037037 7.23958333333333  13.8107638888889 7.3125  L 13.3246527777778 9.0625  C 13.2957175925926 9.1875  13.2060185185185 9.25  13.0555555555556 9.25  L 10.2170138888889 9.25  L 9.51388888888889 11.8125  C 9.47337962962963 11.9375  9.38368055555556 12  9.24479166666667 12  L 7.30034722222222 12  C 7.20775462962963 12  7.13252314814815 11.96875  7.07465277777778 11.90625  C 7.02256944444444 11.84375  7.00520833333333 11.7708333333333  7.02256944444444 11.6875  L 7.69965277777778 9.25  L 5.49479166666667 9.25  L 4.79166666666667 11.8125  C 4.75115740740741 11.9375  4.66145833333333 12  4.52256944444444 12  L 2.56944444444444 12  C 2.48263888888889 12  2.41030092592593 11.96875  2.35243055555556 11.90625  C 2.30034722222222 11.84375  2.28298611111111 11.7708333333333  2.30034722222222 11.6875  L 2.97743055555556 9.25  L 0.277777777777778 9.25  C 0.190972222222222 9.25  0.118634259259259 9.21875  0.0607638888888889 9.15625  C 0.00868055555555556 9.09375  -0.00868055555555552 9.02083333333333  0.00868055555555556 8.9375  L 0.494791666666667 7.1875  C 0.535300925925926 7.0625  0.625 7  0.763888888888889 7  L 3.60243055555556 7  L 4.15798611111111 5  L 1.45833333333333 5  C 1.37152777777778 5  1.29918981481481 4.96875  1.24131944444444 4.90625  C 1.18344907407407 4.83333333333333  1.16608796296296 4.76041666666667  1.18923611111111 4.6875  L 1.67534722222222 2.9375  C 1.70428240740741 2.8125  1.79398148148148 2.75  1.94444444444444 2.75  L 4.78298611111111 2.75  L 5.48611111111111 0.1875  C 5.52662037037037 0.0625000000000004  5.61921296296296 0  5.76388888888889 0  L 7.70833333333333 0  C 7.79513888888889 0  7.86747685185185 0.0312499999999996  7.92534722222222 0.09375  C 7.97743055555556 0.15625  7.99479166666667 0.229166666666667  7.97743055555556 0.3125  L 7.30034722222222 2.75  L 9.50520833333333 2.75  L 10.2083333333333 0.1875  C 10.2488425925926 0.0625000000000004  10.3414351851852 0  10.4861111111111 0  L 12.4305555555556 0  C 12.5173611111111 0  12.5896990740741 0.0312499999999996  12.6475694444444 0.09375  C 12.6996527777778 0.15625  12.7170138888889 0.229166666666667  12.6996527777778 0.3125  L 12.0225694444444 2.75  L 14.7222222222222 2.75  C 14.8090277777778 2.75  14.8813657407407 2.78125  14.9392361111111 2.84375  Z " fill-rule="nonzero" fill="#7f7f7f" stroke="none" transform="matrix(1 0 0 1 878 287 )" />
  </g>
</svg>