<?xml version="1.0" encoding="utf-8"?>
<svg version="1.1" xmlns:xlink="http://www.w3.org/1999/xlink" width="4px" height="6px" xmlns="http://www.w3.org/2000/svg">
  <g transform="matrix(1 0 0 1 -1027 -193 )">
    <path d="M 3.93127147766323 2.86172344689379  C 3.97709049255441 2.90180360721443  4 2.94789579158317  4 3  C 4 3.05210420841683  3.97709049255441 3.09819639278557  3.93127147766323 3.13827655310621  L 0.728522336769759 5.93987975951904  C 0.68270332187858 5.97995991983968  0.630011454753723 6  0.570446735395189 6  C 0.510882016036655 6  0.458190148911798 5.97995991983968  0.412371134020619 5.93987975951904  L 0.0687285223367698 5.63927855711423  C 0.0229095074455899 5.59919839679359  0 5.55310621242485  0 5.50100200400802  C 0 5.44889779559118  0.0229095074455899 5.40280561122244  0.0687285223367698 5.3627254509018  L 2.76975945017182 3  L 0.0687285223367698 0.637274549098196  C 0.0229095074455899 0.597194388777555  0 0.551102204408817  0 0.498997995991984  C 0 0.44689378757515  0.0229095074455899 0.400801603206412  0.0687285223367698 0.360721442885771  L 0.412371134020619 0.060120240480962  C 0.458190148911798 0.0200400801603204  0.510882016036655 0  0.570446735395189 0  C 0.630011454753723 0  0.68270332187858 0.0200400801603204  0.728522336769759 0.060120240480962  L 3.93127147766323 2.86172344689379  Z " fill-rule="nonzero" fill="#3324ff" stroke="none" transform="matrix(1 0 0 1 1027 193 )" />
  </g>
</svg>