<?xml version="1.0" encoding="utf-8"?>
<svg version="1.1" xmlns:xlink="http://www.w3.org/1999/xlink" width="13px" height="11px" xmlns="http://www.w3.org/2000/svg">
  <g transform="matrix(1 0 0 1 -906 -121 )">
    <path d="M 5.30381944444444 6.41666666666667  L 7.21469907407407 6.41666666666667  L 7.69618055555556 4.58333333333333  L 5.78530092592593 4.58333333333333  L 5.30381944444444 6.41666666666667  Z M 12.947337962963 2.60677083333333  C 12.9924768518519 2.6640625  13.0075231481481 2.73090277777778  12.9924768518519 2.80729166666667  L 12.5711805555556 4.41145833333333  C 12.5360725308642 4.52604166666667  12.4583333333333 4.58333333333333  12.337962962963 4.58333333333333  L 9.87789351851852 4.58333333333333  L 9.39641203703704 6.41666666666667  L 11.7361111111111 6.41666666666667  C 11.8113425925926 6.41666666666667  11.8740354938272 6.4453125  11.9241898148148 6.50260416666667  C 11.9743441358025 6.56944444444444  11.9893904320988 6.63628472222222  11.9693287037037 6.703125  L 11.5480324074074 8.30729166666667  C 11.5229552469136 8.421875  11.4452160493827 8.47916666666667  11.3148148148148 8.47916666666667  L 8.85474537037037 8.47916666666667  L 8.24537037037037 10.828125  C 8.21026234567901 10.9427083333333  8.13252314814815 11  8.01215277777778 11  L 6.32696759259259 11  C 6.24672067901235 11  6.1815200617284 10.9713541666667  6.13136574074074 10.9140625  C 6.08622685185185 10.8567708333333  6.07118055555556 10.7899305555556  6.08622685185185 10.7135416666667  L 6.67303240740741 8.47916666666667  L 4.76215277777778 8.47916666666667  L 4.15277777777778 10.828125  C 4.11766975308642 10.9427083333333  4.03993055555556 11  3.91956018518519 11  L 2.22685185185185 11  C 2.15162037037037 11  2.0889274691358 10.9713541666667  2.03877314814815 10.9140625  C 1.99363425925926 10.8567708333333  1.97858796296296 10.7899305555556  1.99363425925926 10.7135416666667  L 2.58043981481481 8.47916666666667  L 0.240740740740741 8.47916666666667  C 0.165509259259259 8.47916666666667  0.102816358024691 8.45052083333333  0.052662037037037 8.39322916666667  C 0.00752314814814815 8.3359375  -0.00752314814814812 8.26909722222222  0.00752314814814815 8.19270833333333  L 0.428819444444444 6.58854166666667  C 0.463927469135802 6.47395833333333  0.541666666666667 6.41666666666667  0.662037037037037 6.41666666666667  L 3.12210648148148 6.41666666666667  L 3.60358796296296 4.58333333333333  L 1.26388888888889 4.58333333333333  C 1.18865740740741 4.58333333333333  1.12596450617284 4.5546875  1.07581018518519 4.49739583333333  C 1.02565586419753 4.43055555555556  1.01060956790123 4.36371527777778  1.0306712962963 4.296875  L 1.45196759259259 2.69270833333333  C 1.47704475308642 2.578125  1.55478395061728 2.52083333333333  1.68518518518519 2.52083333333333  L 4.14525462962963 2.52083333333333  L 4.75462962962963 0.171875  C 4.78973765432099 0.0572916666666671  4.86998456790124 0  4.99537037037037 0  L 6.68055555555556 0  C 6.75578703703704 0  6.81847993827161 0.0286458333333329  6.86863425925926 0.0859375  C 6.91377314814815 0.143229166666667  6.92881944444444 0.210069444444444  6.91377314814815 0.286458333333333  L 6.32696759259259 2.52083333333333  L 8.23784722222222 2.52083333333333  L 8.84722222222222 0.171875  C 8.88233024691358 0.0572916666666671  8.96257716049383 0  9.08796296296296 0  L 10.7731481481481 0  C 10.8483796296296 0  10.9110725308642 0.0286458333333329  10.9612268518519 0.0859375  C 11.0063657407407 0.143229166666667  11.021412037037 0.210069444444444  11.0063657407407 0.286458333333333  L 10.4195601851852 2.52083333333333  L 12.7592592592593 2.52083333333333  C 12.8344907407407 2.52083333333333  12.8971836419753 2.54947916666667  12.947337962963 2.60677083333333  Z " fill-rule="nonzero" fill="#555555" stroke="none" transform="matrix(1 0 0 1 906 121 )" />
  </g>
</svg>