<?xml version="1.0" encoding="utf-8"?>
<svg version="1.1" xmlns:xlink="http://www.w3.org/1999/xlink" width="11px" height="11px" xmlns="http://www.w3.org/2000/svg">
  <g transform="matrix(1 0 0 1 -1252 -106 )">
    <path d="M 6.51345755693582 5.24649298597194  C 6.58937198067633 5.31997327989312  6.62732919254658 5.40447561790247  6.62732919254658 5.5  C 6.62732919254658 5.59552438209753  6.58937198067633 5.68002672010688  6.51345755693582 5.75350701402806  L 1.20703933747412 10.8897795591182  C 1.13112491373361 10.9632598530394  1.04382332643202 11  0.945134575569358 11  C 0.846445824706694 11  0.759144237405107 10.9632598530394  0.683229813664596 10.8897795591182  L 0.113871635610766 10.3386773547094  C 0.0379572118702554 10.2651970607882  0 10.1806947227789  0 10.0851703406814  C 0 9.98964595858383  0.0379572118702554 9.90514362057448  0.113871635610766 9.83166332665331  L 4.58902691511387 5.5  L 0.113871635610766 1.16833667334669  C 0.0379572118702554 1.09485637942552  0 1.01035404141617  0 0.914829659318638  C 0 0.819305277221107  0.0379572118702554 0.734802939211756  0.113871635610766 0.661322645290581  L 0.683229813664596 0.110220440881764  C 0.759144237405107 0.0367401469605875  0.846445824706694 0  0.945134575569358 0  C 1.04382332643202 0  1.13112491373361 0.0367401469605875  1.20703933747412 0.110220440881764  L 6.51345755693582 5.24649298597194  Z M 10.8861283643892 5.24649298597194  C 10.9620427881297 5.31997327989312  11 5.40447561790247  11 5.5  C 11 5.59552438209753  10.9620427881297 5.68002672010688  10.8861283643892 5.75350701402806  L 5.57971014492754 10.8897795591182  C 5.50379572118703 10.9632598530394  5.41649413388544 11  5.31780538302277 11  C 5.21911663216011 11  5.13181504485852 10.9632598530394  5.05590062111801 10.8897795591182  L 4.48654244306418 10.3386773547094  C 4.41062801932367 10.2651970607882  4.37267080745342 10.1806947227789  4.37267080745342 10.0851703406814  C 4.37267080745342 9.98964595858383  4.41062801932367 9.90514362057448  4.48654244306418 9.83166332665331  L 8.96169772256729 5.5  L 4.48654244306418 1.16833667334669  C 4.41062801932367 1.09485637942552  4.37267080745342 1.01035404141617  4.37267080745342 0.914829659318638  C 4.37267080745342 0.819305277221107  4.41062801932367 0.734802939211756  4.48654244306418 0.661322645290581  L 5.05590062111801 0.110220440881764  C 5.13181504485852 0.0367401469605875  5.21911663216011 0  5.31780538302277 0  C 5.41649413388544 0  5.50379572118703 0.0367401469605875  5.57971014492754 0.110220440881764  L 10.8861283643892 5.24649298597194  Z " fill-rule="nonzero" fill="#d7d7d7" stroke="none" transform="matrix(1 0 0 1 1252 106 )" />
  </g>
</svg>