<?xml version="1.0" encoding="utf-8"?>
<svg version="1.1" xmlns:xlink="http://www.w3.org/1999/xlink" width="23px" height="26px" xmlns="http://www.w3.org/2000/svg">
  <g transform="matrix(1 0 0 1 -166 -259 )">
    <path d="M 16.0198317307692 19.7248883928571  C 16.4068509615385 19.2557663690476  16.6003605769231 18.6681547619048  16.6003605769231 17.9620535714286  C 16.6003605769231 17.4107142857143  16.5750200320513 16.8932291666667  16.5243389423077 16.4095982142857  C 16.4736578525641 15.9259672619048  16.3769030448718 15.4399181547619  16.2340745192308 14.9514508928571  C 16.0912459935897 14.4629836309524  15.9092548076923 14.0470610119048  15.6881009615385 13.7036830357143  C 15.4669471153846 13.3603050595238  15.1720753205128 13.0797991071429  14.8034855769231 12.8621651785714  C 14.4348958333333 12.64453125  14.015625 12.5357142857143  13.5456730769231 12.5357142857143  C 13.4903846153846 12.5744047619048  13.3360376602564 12.6735491071429  13.0826322115385 12.8331473214286  C 12.8292267628205 12.9927455357143  12.6334134615385 13.1112351190476  12.4951923076923 13.1886160714286  C 12.3569711538462 13.2659970238095  12.1703725961538 13.3627232142857  11.9353966346154 13.4787946428571  C 11.7004206730769 13.5948660714286  11.4746594551282 13.6770833333333  11.2581129807692 13.7254464285714  C 11.0415665064103 13.7738095238095  10.8273237179487 13.7979910714286  10.6153846153846 13.7979910714286  C 10.4034455128205 13.7979910714286  10.189202724359 13.7738095238095  9.97265625 13.7254464285714  C 9.75610977564103 13.6770833333333  9.53034855769231 13.5948660714286  9.29537259615385 13.4787946428571  C 9.06039663461538 13.3627232142857  8.87379807692308 13.2659970238095  8.73557692307692 13.1886160714286  C 8.59735576923077 13.1112351190476  8.40154246794872 12.9927455357143  8.14813701923077 12.8331473214286  C 7.89473157051282 12.6735491071429  7.74038461538462 12.5744047619048  7.68509615384615 12.5357142857143  C 7.21514423076923 12.5357142857143  6.7958733974359 12.64453125  6.42728365384615 12.8621651785714  C 6.05869391025641 13.0797991071429  5.76382211538462 13.3603050595238  5.54266826923077 13.7036830357143  C 5.32151442307692 14.0470610119048  5.13952323717949 14.4629836309524  4.99669471153846 14.9514508928571  C 4.85386618589744 15.4399181547619  4.75711137820513 15.9259672619048  4.70643028846154 16.4095982142857  C 4.65574919871795 16.8932291666667  4.63040865384615 17.4107142857143  4.63040865384615 17.9620535714286  C 4.63040865384615 18.6681547619048  4.82391826923077 19.2557663690476  5.2109375 19.7248883928571  C 5.59795673076923 20.1940104166667  6.07251602564103 20.4285714285714  6.63461538461538 20.4285714285714  L 14.5961538461538 20.4285714285714  C 15.1582532051282 20.4285714285714  15.6328125 20.1940104166667  16.0198317307692 19.7248883928571  Z M 13.1517427884615 11.9988839285714  C 13.8566706730769 11.2637648809524  14.2091346153846 10.3787202380952  14.2091346153846 9.34375  C 14.2091346153846 8.29910714285714  13.8566706730769 7.40922619047619  13.1517427884615 6.67410714285714  C 12.4468149038462 5.93898809523809  11.6013621794872 5.57142857142857  10.6153846153846 5.57142857142857  C 9.62940705128205 5.57142857142857  8.78395432692308 5.93898809523809  8.07902644230769 6.67410714285714  C 7.37409855769231 7.40922619047619  7.02163461538462 8.29910714285714  7.02163461538462 9.34375  C 7.02163461538462 10.3787202380952  7.37409855769231 11.2637648809524  8.07902644230769 11.9988839285714  C 8.78395432692308 12.7340029761905  9.62940705128205 13.1015625  10.6153846153846 13.1015625  C 11.6013621794872 13.1015625  12.4468149038462 12.7340029761905  13.1517427884615 11.9988839285714  Z M 22.8756009615385 16.8448660714286  C 22.9585336538462 16.9319196428571  23 17.0431547619048  23 17.1785714285714  L 23 19.9642857142857  C 23 20.0997023809524  22.9585336538462 20.2109375  22.8756009615385 20.2979910714286  C 22.7926682692308 20.3850446428571  22.6866987179487 20.4285714285714  22.5576923076923 20.4285714285714  L 21.2307692307692 20.4285714285714  L 21.2307692307692 23.6785714285714  C 21.2307692307692 24.3169642857143  21.0142227564103 24.8634672619048  20.5811298076923 25.3180803571429  C 20.1480368589744 25.772693452381  19.6274038461538 26  19.0192307692308 26  L 2.21153846153846 26  C 1.60336538461538 26  1.08273237179487 25.772693452381  0.649639423076923 25.3180803571429  C 0.216546474358974 24.8634672619048  0 24.3169642857143  0 23.6785714285714  L 0 2.32142857142857  C 0 1.68303571428572  0.216546474358974 1.13653273809524  0.649639423076923 0.681919642857144  C 1.08273237179487 0.227306547619048  1.60336538461538 0  2.21153846153846 0  L 19.0192307692308 0  C 19.6274038461538 0  20.1480368589744 0.227306547619048  20.5811298076923 0.681919642857144  C 21.0142227564103 1.13653273809524  21.2307692307692 1.68303571428572  21.2307692307692 2.32142857142857  L 21.2307692307692 5.57142857142857  L 22.5576923076923 5.57142857142857  C 22.6866987179487 5.57142857142857  22.7926682692308 5.61495535714286  22.8756009615385 5.70200892857143  C 22.9585336538462 5.7890625  23 5.90029761904762  23 6.03571428571428  L 23 8.82142857142857  C 23 8.95684523809524  22.9585336538462 9.06808035714286  22.8756009615385 9.15513392857143  C 22.7926682692308 9.2421875  22.6866987179487 9.28571428571428  22.5576923076923 9.28571428571428  L 21.2307692307692 9.28571428571428  L 21.2307692307692 11.1428571428571  L 22.5576923076923 11.1428571428571  C 22.6866987179487 11.1428571428571  22.7926682692308 11.1863839285714  22.8756009615385 11.2734375  C 22.9585336538462 11.3604910714286  23 11.4717261904762  23 11.6071428571429  L 23 14.3928571428571  C 23 14.5282738095238  22.9585336538462 14.6395089285714  22.8756009615385 14.7265625  C 22.7926682692308 14.8136160714286  22.6866987179487 14.8571428571429  22.5576923076923 14.8571428571429  L 21.2307692307692 14.8571428571429  L 21.2307692307692 16.7142857142857  L 22.5576923076923 16.7142857142857  C 22.6866987179487 16.7142857142857  22.7926682692308 16.7578125  22.8756009615385 16.8448660714286  Z " fill-rule="nonzero" fill="#7f7f7f" stroke="none" transform="matrix(1 0 0 1 166 259 )" />
  </g>
</svg>