<?xml version="1.0" encoding="utf-8"?>
<svg version="1.1" xmlns:xlink="http://www.w3.org/1999/xlink" width="23px" height="25px" xmlns="http://www.w3.org/2000/svg">
  <g transform="matrix(1 0 0 1 -167 -405 )">
    <path d="M 1.76923076923077 19.1964285714286  L 1.76923076923077 23.2142857142857  L 5.75 23.2142857142857  L 5.75 19.1964285714286  L 1.76923076923077 19.1964285714286  Z M 6.63461538461538 19.1964285714286  L 6.63461538461538 23.2142857142857  L 11.0576923076923 23.2142857142857  L 11.0576923076923 19.1964285714286  L 6.63461538461538 19.1964285714286  Z M 1.76923076923077 13.8392857142857  L 1.76923076923077 18.3035714285714  L 5.75 18.3035714285714  L 5.75 13.8392857142857  L 1.76923076923077 13.8392857142857  Z M 6.63461538461538 13.8392857142857  L 6.63461538461538 18.3035714285714  L 11.0576923076923 18.3035714285714  L 11.0576923076923 13.8392857142857  L 6.63461538461538 13.8392857142857  Z M 1.76923076923077 8.92857142857143  L 1.76923076923077 12.9464285714286  L 5.75 12.9464285714286  L 5.75 8.92857142857143  L 1.76923076923077 8.92857142857143  Z M 11.9423076923077 19.1964285714286  L 11.9423076923077 23.2142857142857  L 16.3653846153846 23.2142857142857  L 16.3653846153846 19.1964285714286  L 11.9423076923077 19.1964285714286  Z M 6.63461538461538 8.92857142857143  L 6.63461538461538 12.9464285714286  L 11.0576923076923 12.9464285714286  L 11.0576923076923 8.92857142857143  L 6.63461538461538 8.92857142857143  Z M 17.25 19.1964285714286  L 17.25 23.2142857142857  L 21.2307692307692 23.2142857142857  L 21.2307692307692 19.1964285714286  L 17.25 19.1964285714286  Z M 11.9423076923077 13.8392857142857  L 11.9423076923077 18.3035714285714  L 16.3653846153846 18.3035714285714  L 16.3653846153846 13.8392857142857  L 11.9423076923077 13.8392857142857  Z M 6.94561298076923 6.56389508928572  C 7.03315304487179 6.47553943452381  7.07692307692308 6.37090773809524  7.07692307692308 6.25  L 7.07692307692308 2.23214285714286  C 7.07692307692308 2.11123511904762  7.03315304487179 2.00660342261905  6.94561298076923 1.91824776785714  C 6.85807291666667 1.82989211309524  6.75440705128205 1.78571428571428  6.63461538461538 1.78571428571428  L 5.75 1.78571428571428  C 5.63020833333333 1.78571428571428  5.52654246794872 1.82989211309524  5.43900240384615 1.91824776785714  C 5.35146233974359 2.00660342261905  5.30769230769231 2.11123511904762  5.30769230769231 2.23214285714286  L 5.30769230769231 6.25  C 5.30769230769231 6.37090773809524  5.35146233974359 6.47553943452381  5.43900240384615 6.56389508928572  C 5.52654246794872 6.65225074404762  5.63020833333333 6.69642857142857  5.75 6.69642857142857  L 6.63461538461538 6.69642857142857  C 6.75440705128205 6.69642857142857  6.85807291666667 6.65225074404762  6.94561298076923 6.56389508928572  Z M 17.25 13.8392857142857  L 17.25 18.3035714285714  L 21.2307692307692 18.3035714285714  L 21.2307692307692 13.8392857142857  L 17.25 13.8392857142857  Z M 11.9423076923077 8.92857142857143  L 11.9423076923077 12.9464285714286  L 16.3653846153846 12.9464285714286  L 16.3653846153846 8.92857142857143  L 11.9423076923077 8.92857142857143  Z M 17.25 8.92857142857143  L 17.25 12.9464285714286  L 21.2307692307692 12.9464285714286  L 21.2307692307692 8.92857142857143  L 17.25 8.92857142857143  Z M 17.5609975961538 6.56389508928572  C 17.6485376602564 6.47553943452381  17.6923076923077 6.37090773809524  17.6923076923077 6.25  L 17.6923076923077 2.23214285714286  C 17.6923076923077 2.11123511904762  17.6485376602564 2.00660342261905  17.5609975961538 1.91824776785714  C 17.4734575320513 1.82989211309524  17.3697916666667 1.78571428571428  17.25 1.78571428571428  L 16.3653846153846 1.78571428571428  C 16.245592948718 1.78571428571428  16.1419270833333 1.82989211309524  16.0543870192308 1.91824776785714  C 15.9668469551282 2.00660342261905  15.9230769230769 2.11123511904762  15.9230769230769 2.23214285714286  L 15.9230769230769 6.25  C 15.9230769230769 6.37090773809524  15.9668469551282 6.47553943452381  16.0543870192308 6.56389508928572  C 16.1419270833333 6.65225074404762  16.245592948718 6.69642857142857  16.3653846153846 6.69642857142857  L 17.25 6.69642857142857  C 17.3697916666667 6.69642857142857  17.4734575320513 6.65225074404762  17.5609975961538 6.56389508928572  Z M 22.4747596153846 4.1015625  C 22.8249198717949 4.45498511904762  23 4.8735119047619  23 5.35714285714286  L 23 23.2142857142857  C 23 23.6979166666667  22.8249198717949 24.116443452381  22.4747596153846 24.4698660714286  C 22.1245993589744 24.8232886904762  21.7099358974359 25  21.2307692307692 25  L 1.76923076923077 25  C 1.2900641025641 25  0.875400641025641 24.8232886904762  0.525240384615385 24.4698660714286  C 0.175080128205128 24.116443452381  0 23.6979166666667  0 23.2142857142857  L 0 5.35714285714286  C 0 4.8735119047619  0.175080128205128 4.45498511904762  0.525240384615385 4.1015625  C 0.875400641025641 3.74813988095238  1.2900641025641 3.57142857142857  1.76923076923077 3.57142857142857  L 3.53846153846154 3.57142857142857  L 3.53846153846154 2.23214285714286  C 3.53846153846154 1.61830357142857  3.75500801282051 1.09281994047619  4.18810096153846 0.655691964285715  C 4.62119391025641 0.218563988095238  5.14182692307692 0  5.75 0  L 6.63461538461538 0  C 7.24278846153846 0  7.76342147435898 0.218563988095238  8.19651442307692 0.655691964285715  C 8.62960737179487 1.09281994047619  8.84615384615385 1.61830357142857  8.84615384615385 2.23214285714286  L 8.84615384615385 3.57142857142857  L 14.1538461538462 3.57142857142857  L 14.1538461538462 2.23214285714286  C 14.1538461538462 1.61830357142857  14.3703926282051 1.09281994047619  14.8034855769231 0.655691964285715  C 15.236578525641 0.218563988095238  15.7572115384615 0  16.3653846153846 0  L 17.25 0  C 17.8581730769231 0  18.3788060897436 0.218563988095238  18.8118990384615 0.655691964285715  C 19.2449919871795 1.09281994047619  19.4615384615385 1.61830357142857  19.4615384615385 2.23214285714286  L 19.4615384615385 3.57142857142857  L 21.2307692307692 3.57142857142857  C 21.7099358974359 3.57142857142857  22.1245993589744 3.74813988095238  22.4747596153846 4.1015625  Z " fill-rule="nonzero" fill="#7f7f7f" stroke="none" transform="matrix(1 0 0 1 167 405 )" />
  </g>
</svg>