<?xml version="1.0" encoding="utf-8"?>
<svg version="1.1" xmlns:xlink="http://www.w3.org/1999/xlink" width="23px" height="25px" xmlns="http://www.w3.org/2000/svg">
  <g transform="matrix(1 0 0 1 -166 -356 )">
    <path d="M 6.13333333333333 8.92857142857143  C 6.13333333333333 10.2213541666667  6.45677083333333 11.4118303571429  7.10364583333333 12.5  C 5.80989583333333 12.5465029761905  4.75173611111111 13.1417410714286  3.92916666666667 14.2857142857143  L 2.32395833333333 14.2857142857143  C 1.66909722222222 14.2857142857143  1.11805555555556 14.0973772321429  0.670833333333333 13.720703125  C 0.223611111111111 13.3440290178571  0 12.79296875  0 12.0675223214286  C 0 8.78441220238095  0.495138888888889 7.14285714285714  1.48541666666667 7.14285714285714  C 1.53333333333333 7.14285714285714  1.70703125 7.24051339285714  2.00651041666667 7.43582589285714  C 2.30598958333333 7.63113839285714  2.6953125 7.82877604166667  3.17447916666667 8.02873883928572  C 3.65364583333333 8.22870163690476  4.12881944444444 8.32868303571428  4.6 8.32868303571428  C 5.13506944444444 8.32868303571428  5.66614583333333 8.22172619047619  6.19322916666667 8.0078125  C 6.15329861111111 8.35193452380952  6.13333333333333 8.65885416666667  6.13333333333333 8.92857142857143  Z M 19.89140625 19.9428013392857  C 19.9193576388889 20.4124813988095  19.9333333333333 20.893787202381  19.9333333333333 21.38671875  C 19.9333333333333 22.5027901785714  19.6418402777778 23.384021577381  19.0588541666667 24.0304129464286  C 18.4758680555556 24.6768043154762  17.7012152777778 25  16.7348958333333 25  L 6.26510416666667 25  C 5.29878472222222 25  4.52413194444445 24.6768043154762  3.94114583333333 24.0304129464286  C 3.35815972222222 23.384021577381  3.06666666666667 22.5027901785714  3.06666666666667 21.38671875  C 3.06666666666667 20.893787202381  3.08064236111111 20.4124813988095  3.10859375 19.9428013392857  C 3.13654513888889 19.4731212797619  3.19244791666667 18.9662388392857  3.27630208333333 18.4221540178571  C 3.36015625 17.8780691964286  3.46597222222222 17.3735119047619  3.59375 16.9084821428571  C 3.72152777777778 16.4434523809524  3.89322916666667 15.9900483630952  4.10885416666667 15.5482700892857  C 4.32447916666667 15.1064918154762  4.57204861111111 14.7298177083333  4.8515625 14.4182477678571  C 5.13107638888889 14.106677827381  5.47248263888889 13.8578869047619  5.87578125 13.671875  C 6.27907986111111 13.4858630952381  6.72430555555556 13.3928571428571  7.21145833333333 13.3928571428571  C 7.29131944444445 13.3928571428571  7.46302083333333 13.4928385416667  7.7265625 13.6928013392857  C 7.99010416666667 13.8927641369048  8.28159722222222 14.115978422619  8.60104166666667 14.3624441964286  C 8.92048611111111 14.6089099702381  9.34774305555556 14.8321242559524  9.8828125 15.0320870535714  C 10.4178819444444 15.2320498511905  10.9569444444444 15.33203125  11.5 15.33203125  C 12.0430555555556 15.33203125  12.5821180555556 15.2320498511905  13.1171875 15.0320870535714  C 13.6522569444444 14.8321242559524  14.0795138888889 14.6089099702381  14.3989583333333 14.3624441964286  C 14.7184027777778 14.115978422619  15.0098958333333 13.8927641369048  15.2734375 13.6928013392857  C 15.5369791666667 13.4928385416667  15.7086805555556 13.3928571428571  15.7885416666667 13.3928571428571  C 16.2756944444444 13.3928571428571  16.7209201388889 13.4858630952381  17.12421875 13.671875  C 17.5275173611111 13.8578869047619  17.8689236111111 14.106677827381  18.1484375 14.4182477678571  C 18.4279513888889 14.7298177083333  18.6755208333333 15.1064918154762  18.8911458333333 15.5482700892857  C 19.1067708333333 15.9900483630952  19.2784722222222 16.4434523809524  19.40625 16.9084821428571  C 19.5340277777778 17.3735119047619  19.63984375 17.8780691964286  19.7236979166667 18.4221540178571  C 19.8075520833333 18.9662388392857  19.8634548611111 19.4731212797619  19.89140625 19.9428013392857  Z M 6.76822916666667 1.04631696428572  C 7.3671875 1.74386160714286  7.66666666666667 2.58556547619047  7.66666666666667 3.57142857142857  C 7.66666666666667 4.55729166666667  7.3671875 5.39899553571428  6.76822916666667 6.09654017857143  C 6.16927083333333 6.79408482142857  5.44652777777778 7.14285714285714  4.6 7.14285714285714  C 3.75347222222222 7.14285714285714  3.03072916666667 6.79408482142857  2.43177083333333 6.09654017857143  C 1.8328125 5.39899553571428  1.53333333333333 4.55729166666667  1.53333333333333 3.57142857142857  C 1.53333333333333 2.58556547619047  1.8328125 1.74386160714286  2.43177083333333 1.04631696428572  C 3.03072916666667 0.348772321428573  3.75347222222222 0  4.6 0  C 5.44652777777778 0  6.16927083333333 0.348772321428573  6.76822916666667 1.04631696428572  Z M 14.75234375 5.14090401785714  C 15.65078125 6.18722098214286  16.1 7.44977678571428  16.1 8.92857142857143  C 16.1 10.4073660714286  15.65078125 11.669921875  14.75234375 12.7162388392857  C 13.85390625 13.7625558035714  12.7697916666667 14.2857142857143  11.5 14.2857142857143  C 10.2302083333333 14.2857142857143  9.14609375 13.7625558035714  8.24765625 12.7162388392857  C 7.34921875 11.669921875  6.9 10.4073660714286  6.9 8.92857142857143  C 6.9 7.44977678571428  7.34921875 6.18722098214286  8.24765625 5.14090401785714  C 9.14609375 4.09458705357143  10.2302083333333 3.57142857142857  11.5 3.57142857142857  C 12.7697916666667 3.57142857142857  13.85390625 4.09458705357143  14.75234375 5.14090401785714  Z M 21.5145833333333 7.14285714285714  C 22.5048611111111 7.14285714285714  23 8.78441220238095  23 12.0675223214286  C 23 12.79296875  22.7763888888889 13.3440290178571  22.3291666666667 13.720703125  C 21.8819444444444 14.0973772321429  21.3309027777778 14.2857142857143  20.6760416666667 14.2857142857143  L 19.0708333333333 14.2857142857143  C 18.2482638888889 13.1417410714286  17.1901041666667 12.5465029761905  15.8963541666667 12.5  C 16.5432291666667 11.4118303571429  16.8666666666667 10.2213541666667  16.8666666666667 8.92857142857143  C 16.8666666666667 8.65885416666667  16.8467013888889 8.35193452380952  16.8067708333333 8.0078125  C 17.3338541666667 8.22172619047619  17.8649305555556 8.32868303571428  18.4 8.32868303571428  C 18.8711805555556 8.32868303571428  19.3463541666667 8.22870163690476  19.8255208333333 8.02873883928572  C 20.3046875 7.82877604166667  20.6940104166667 7.63113839285714  20.9934895833333 7.43582589285714  C 21.29296875 7.24051339285714  21.4666666666667 7.14285714285714  21.5145833333333 7.14285714285714  Z M 20.5682291666667 1.04631696428572  C 21.1671875 1.74386160714286  21.4666666666667 2.58556547619047  21.4666666666667 3.57142857142857  C 21.4666666666667 4.55729166666667  21.1671875 5.39899553571428  20.5682291666667 6.09654017857143  C 19.9692708333333 6.79408482142857  19.2465277777778 7.14285714285714  18.4 7.14285714285714  C 17.5534722222222 7.14285714285714  16.8307291666667 6.79408482142857  16.2317708333333 6.09654017857143  C 15.6328125 5.39899553571428  15.3333333333333 4.55729166666667  15.3333333333333 3.57142857142857  C 15.3333333333333 2.58556547619047  15.6328125 1.74386160714286  16.2317708333333 1.04631696428572  C 16.8307291666667 0.348772321428573  17.5534722222222 0  18.4 0  C 19.2465277777778 0  19.9692708333333 0.348772321428573  20.5682291666667 1.04631696428572  Z " fill-rule="nonzero" fill="#f2f2f2" stroke="none" transform="matrix(1 0 0 1 166 356 )" />
  </g>
</svg>