<?xml version="1.0" encoding="utf-8"?>
<svg version="1.1" xmlns:xlink="http://www.w3.org/1999/xlink" width="23px" height="24px" xmlns="http://www.w3.org/2000/svg">
  <g transform="matrix(1 0 0 1 -166 -504 )">
    <path d="M 4.806640625 17.6164772727273  C 4.88792782738095 17.7244318181818  4.92857142857143 17.8522727272727  4.92857142857143 18  L 4.92857142857143 19.0909090909091  C 4.92857142857143 19.2386363636364  4.88792782738095 19.3664772727273  4.806640625 19.4744318181818  C 4.72535342261905 19.5823863636364  4.62909226190476 19.6363636363636  4.51785714285714 19.6363636363636  L 3.69642857142857 19.6363636363636  C 3.58519345238095 19.6363636363636  3.48893229166667 19.5823863636364  3.40764508928571 19.4744318181818  C 3.32635788690476 19.3664772727273  3.28571428571429 19.2386363636364  3.28571428571429 19.0909090909091  L 3.28571428571429 18  C 3.28571428571429 17.8522727272727  3.32635788690476 17.7244318181818  3.40764508928571 17.6164772727273  C 3.48893229166667 17.5085227272727  3.58519345238095 17.4545454545455  3.69642857142857 17.4545454545455  L 4.51785714285714 17.4545454545455  C 4.62909226190476 17.4545454545455  4.72535342261905 17.5085227272727  4.806640625 17.6164772727273  Z M 4.806640625 13.2528409090909  C 4.88792782738095 13.3607954545455  4.92857142857143 13.4886363636364  4.92857142857143 13.6363636363636  L 4.92857142857143 14.7272727272727  C 4.92857142857143 14.875  4.88792782738095 15.0028409090909  4.806640625 15.1107954545455  C 4.72535342261905 15.21875  4.62909226190476 15.2727272727273  4.51785714285714 15.2727272727273  L 3.69642857142857 15.2727272727273  C 3.58519345238095 15.2727272727273  3.48893229166667 15.21875  3.40764508928571 15.1107954545455  C 3.32635788690476 15.0028409090909  3.28571428571429 14.875  3.28571428571429 14.7272727272727  L 3.28571428571429 13.6363636363636  C 3.28571428571429 13.4886363636364  3.32635788690476 13.3607954545455  3.40764508928571 13.2528409090909  C 3.48893229166667 13.1448863636364  3.58519345238095 13.0909090909091  3.69642857142857 13.0909090909091  L 4.51785714285714 13.0909090909091  C 4.62909226190476 13.0909090909091  4.72535342261905 13.1448863636364  4.806640625 13.2528409090909  Z M 4.806640625 8.88920454545454  C 4.88792782738095 8.99715909090909  4.92857142857143 9.125  4.92857142857143 9.27272727272727  L 4.92857142857143 10.3636363636364  C 4.92857142857143 10.5113636363636  4.88792782738095 10.6392045454545  4.806640625 10.7471590909091  C 4.72535342261905 10.8551136363636  4.62909226190476 10.9090909090909  4.51785714285714 10.9090909090909  L 3.69642857142857 10.9090909090909  C 3.58519345238095 10.9090909090909  3.48893229166667 10.8551136363636  3.40764508928571 10.7471590909091  C 3.32635788690476 10.6392045454545  3.28571428571429 10.5113636363636  3.28571428571429 10.3636363636364  L 3.28571428571429 9.27272727272727  C 3.28571428571429 9.125  3.32635788690476 8.99715909090909  3.40764508928571 8.88920454545454  C 3.48893229166667 8.78125  3.58519345238095 8.72727272727273  3.69642857142857 8.72727272727273  L 4.51785714285714 8.72727272727273  C 4.62909226190476 8.72727272727273  4.72535342261905 8.78125  4.806640625 8.88920454545454  Z M 19.5923549107143 17.6164772727273  C 19.6736421130952 17.7244318181818  19.7142857142857 17.8522727272727  19.7142857142857 18  L 19.7142857142857 19.0909090909091  C 19.7142857142857 19.2386363636364  19.6736421130952 19.3664772727273  19.5923549107143 19.4744318181818  C 19.5110677083333 19.5823863636364  19.414806547619 19.6363636363636  19.3035714285714 19.6363636363636  L 6.98214285714286 19.6363636363636  C 6.87090773809524 19.6363636363636  6.77464657738095 19.5823863636364  6.693359375 19.4744318181818  C 6.61207217261905 19.3664772727273  6.57142857142857 19.2386363636364  6.57142857142857 19.0909090909091  L 6.57142857142857 18  C 6.57142857142857 17.8522727272727  6.61207217261905 17.7244318181818  6.693359375 17.6164772727273  C 6.77464657738095 17.5085227272727  6.87090773809524 17.4545454545455  6.98214285714286 17  L 19.3035714285714 17  C 19.414806547619 17.4545454545455  19.5110677083333 17.5085227272727  19.5923549107143 17.6164772727273  Z M 19.5923549107143 13.2528409090909  C 19.6736421130952 13.3607954545455  19.7142857142857 13.4886363636364  19.7142857142857 13.6363636363636  L 19.7142857142857 14.7272727272727  C 19.7142857142857 14.875  19.6736421130952 15.0028409090909  19.5923549107143 15.1107954545455  C 19.5110677083333 15.21875  19.414806547619 15.2727272727273  19.3035714285714 15  L 6.98214285714286 15  C 6.87090773809524 15.2727272727273  6.77464657738095 15.21875  6.693359375 15.1107954545455  C 6.61207217261905 15.0028409090909  6.57142857142857 14.875  6.57142857142857 14.7272727272727  L 6.57142857142857 13.6363636363636  C 6.57142857142857 13.4886363636364  6.61207217261905 13.3607954545455  6.693359375 13.2528409090909  C 6.77464657738095 13.1448863636364  6.87090773809524 13.0909090909091  6.98214285714286 13  L 19.3035714285714 13  C 19.414806547619 13.0909090909091  19.5110677083333 13.1448863636364  19.5923549107143 13.2528409090909  Z M 19.5923549107143 8.88920454545454  C 19.6736421130952 8.99715909090909  19.7142857142857 9.125  19.7142857142857 9.27272727272727  L 19.7142857142857 10.3636363636364  C 19.7142857142857 10.5113636363636  19.6736421130952 10.6392045454545  19.5923549107143 10.7471590909091  C 19.5110677083333 10.8551136363636  19.414806547619 10.9090909090909  19.3035714285714 11  L 6.98214285714286 11  C 6.87090773809524 10.9090909090909  6.77464657738095 10.8551136363636  6.693359375 10.7471590909091  C 6.61207217261905 10.6392045454545  6.57142857142857 10.5113636363636  6.57142857142857 10.3636363636364  L 6.57142857142857 9.27272727272727  C 6.57142857142857 9.125  6.61207217261905 8.99715909090909  6.693359375 8.88920454545454  C 6.77464657738095 8.78125  6.87090773809524 8.72727272727273  6.98214285714286 9  L 19.3035714285714 9  C 19.414806547619 8.72727272727273  19.5110677083333 8.78125  19.5923549107143 8.88920454545454  Z M 21.2352120535714 21.65625  C 21.3164992559524 21.5482954545455  21.3571428571429 21.4204545454545  21 21.2727272727273  L 21 7.09090909090909  C 21.3571428571429 6.94318181818182  21.3164992559524 6.81534090909091  21.2352120535714 6.70738636363636  C 21.1539248511905 6.59943181818182  21.0576636904762 6.54545454545454  20.9464285714286 7  L 2.05357142857143 7  C 1.94233630952381 6.54545454545454  1.84607514880952 6.59943181818182  1.76478794642857 6.70738636363636  C 1.68350074404762 6.81534090909091  1.64285714285714 6.94318181818182  2 7.09090909090909  L 2 21.2727272727273  C 1.64285714285714 21.4204545454545  1.68350074404762 21.5482954545455  1.76478794642857 21.65625  C 1.84607514880952 21.7642045454545  1.94233630952381 21.8181818181818  2.05357142857143 21.8181818181818  L 20.9464285714286 21.8181818181818  C 21.0576636904762 21.8181818181818  21.1539248511905 21.7642045454545  21.2352120535714 21.65625  Z M 22.3967633928571 0.801136363636362  C 22.7989211309524 1.33522727272727  23 1.97727272727273  23 2.72727272727273  L 23 21.2727272727273  C 23 22.0227272727273  22.7989211309524 22.6647727272727  22.3967633928571 23.1988636363636  C 21.9946056547619 23.7329545454545  21.5111607142857 24  20.9464285714286 24  L 2.05357142857143 24  C 1.48883928571429 24  1.0053943452381 23.7329545454545  0.603236607142857 23.1988636363636  C 0.201078869047619 22.6647727272727  0 22.0227272727273  0 21.2727272727273  L 0 2.72727272727273  C 0 1.97727272727273  0.201078869047619 1.33522727272727  0.603236607142857 0.801136363636362  C 1.0053943452381 0.267045454545451  1.48883928571429 0  2.05357142857143 0  L 20.9464285714286 0  C 21.5111607142857 0  21.9946056547619 0.267045454545451  22.3967633928571 0.801136363636362  Z " fill-rule="nonzero" fill="#7f7f7f" stroke="none" transform="matrix(1 0 0 1 166 504 )" />
  </g>
</svg>