<?xml version="1.0" encoding="utf-8"?>
<svg version="1.1" xmlns:xlink="http://www.w3.org/1999/xlink" width="23px" height="25px" xmlns="http://www.w3.org/2000/svg">
  <g transform="matrix(1 0 0 1 -166 -552 )">
    <path d="M 9.38368055555556 14.5833333333333  L 12.7644675925926 14.5833333333333  L 13.6163194444444 10.4166666666667  L 10.2355324074074 10.4166666666667  L 9.38368055555556 14.5833333333333  Z M 22.9068287037037 5.92447916666667  C 22.9866898148148 6.0546875  23.0133101851852 6.20659722222222  22.9866898148148 6.38020833333333  L 22.2413194444444 10.0260416666667  C 22.1792052469136 10.2864583333333  22.0416666666667 10.4166666666667  21.8287037037037 10.4166666666667  L 17.4762731481481 10.4166666666667  L 16.6244212962963 14.5833333333333  L 20.7638888888889 14.5833333333333  C 20.8969907407407 14.5833333333333  21.0079089506173 14.6484375  21.0966435185185 14.7786458333333  C 21.1853780864198 14.9305555555556  21.2119984567901 15.0824652777778  21.1765046296296 15.234375  L 20.4311342592593 18.8802083333333  C 20.3867669753086 19.140625  20.2492283950617 19.2708333333333  20.0185185185185 19.2708333333333  L 15.666087962963 19.2708333333333  L 14.587962962963 24.609375  C 14.5258487654321 24.8697916666667  14.3883101851852 25  14.1753472222222 25  L 11.1938657407407 25  C 11.0518904320988 25  10.9365354938272 24.9348958333333  10.8478009259259 24.8046875  C 10.7679398148148 24.6744791666667  10.7413194444444 24.5225694444444  10.7679398148148 24.3489583333333  L 11.8061342592593 19.2708333333333  L 8.42534722222222 19.2708333333333  L 7.34722222222222 24.609375  C 7.28510802469136 24.8697916666667  7.14756944444444 25  6.93460648148148 25  L 3.93981481481481 25  C 3.80671296296296 25  3.69579475308642 24.9348958333333  3.60706018518519 24.8046875  C 3.52719907407407 24.6744791666667  3.5005787037037 24.5225694444444  3.52719907407407 24.3489583333333  L 4.56539351851852 19.2708333333333  L 0.425925925925926 19.2708333333333  C 0.292824074074074 19.2708333333333  0.181905864197531 19.2057291666667  0.0931712962962963 19.0755208333333  C 0.0133101851851852 18.9453125  -0.0133101851851851 18.7934027777778  0.0133101851851852 18.6197916666667  L 0.758680555555556 14.9739583333333  C 0.82079475308642 14.7135416666667  0.958333333333333 14.5833333333333  1.1712962962963 14.5833333333333  L 5.52372685185185 14.5833333333333  L 6.3755787037037 10.4166666666667  L 2.23611111111111 10.4166666666667  C 2.10300925925926 10.4166666666667  1.99209104938272 10.3515625  1.90335648148148 10.2213541666667  C 1.81462191358025 10.0694444444444  1.78800154320988 9.91753472222222  1.82349537037037 9.765625  L 2.56886574074074 6.11979166666667  C 2.61323302469136 5.859375  2.75077160493827 5.72916666666667  2.98148148148148 5.72916666666667  L 7.33391203703704 5.72916666666667  L 8.41203703703704 0.390625  C 8.4741512345679 0.130208333333334  8.61612654320988 0  8.83796296296296 0  L 11.8194444444444 0  C 11.9525462962963 0  12.0634645061728 0.0651041666666657  12.1521990740741 0.1953125  C 12.2320601851852 0.325520833333334  12.2586805555556 0.477430555555555  12.2320601851852 0.651041666666666  L 11.1938657407407 5.72916666666667  L 14.5746527777778 5.72916666666667  L 15.6527777777778 0.390625  C 15.7148919753086 0.130208333333334  15.8568672839506 0  16.0787037037037 0  L 19.0601851851852 0  C 19.193287037037 0  19.3042052469136 0.0651041666666657  19.3929398148148 0.1953125  C 19.4728009259259 0.325520833333334  19.4994212962963 0.477430555555555  19.4728009259259 0.651041666666666  L 18.4346064814815 5.72916666666667  L 22.5740740740741 5.72916666666667  C 22.7071759259259 5.72916666666667  22.8180941358025 5.79427083333333  22.9068287037037 5.92447916666667  Z " fill-rule="nonzero" fill="#7f7f7f" stroke="none" transform="matrix(1 0 0 1 166 552 )" />
  </g>
</svg>