<?xml version="1.0" encoding="utf-8"?>
<svg version="1.1" xmlns:xlink="http://www.w3.org/1999/xlink" width="23px" height="27px" xmlns="http://www.w3.org/2000/svg">
  <g transform="matrix(1 0 0 1 -166 -453 )">
    <path d="M 17.3098958333333 1.02455357142857  L 21.9817708333333 5.72544642857143  C 22.2612847222222 6.00669642857143  22.5008680555556 6.38839285714286  22.7005208333333 6.87053571428571  C 22.9001736111111 7.35267857142857  23 7.79464285714286  23 8.19642857142857  L 23 25.5535714285714  C 23 25.9553571428571  22.8602430555556 26.296875  22.5807291666667 26.578125  C 22.3012152777778 26.859375  21.9618055555556 27  21.5625 27  L 1.4375 27  C 1.03819444444444 27  0.698784722222222 26.859375  0.419270833333333 26.578125  C 0.139756944444444 26.296875  0 25.9553571428571  0 25.5535714285714  L 0 1.44642857142857  C 0 1.04464285714286  0.139756944444444 0.703124999999999  0.419270833333333 0.421875  C 0.698784722222222 0.140625000000001  1.03819444444444 0  1.4375 0  L 14.8541666666667 0  C 15.2534722222222 0  15.6927083333333 0.10044642857143  16.171875 0.301339285714286  C 16.6510416666667 0.502232142857143  17.0303819444444 0.74330357142857  17.3098958333333 1.02455357142857  Z M 15.947265625 2.38058035714286  C 15.8274739583333 2.26004464285714  15.6228298611111 2.14955357142857  15.3333333333333 2.04910714285714  L 15.3333333333333 7.71428571428571  L 20.9635416666667 7.71428571428571  C 20.8637152777778 7.42299107142857  20.75390625 7.21707589285714  20.6341145833333 7.09654017857143  L 15.947265625 2.38058035714286  Z M 2 25  L 21 25  L 21 9.64285714285714  L 14.8541666666667 9.64285714285714  C 14.4548611111111 9.64285714285714  14.1154513888889 9.50223214285714  13.8359375 9.22098214285714  C 13.5564236111111 8.93973214285714  13.4166666666667 8.59821428571428  13.4166666666667 8.19642857142857  L 13.4166666666667 2  L 2 2  L 2 25  Z M 5.75 13.0178571428571  L 5.75 12.0535714285714  C 5.75 11.9129464285714  5.794921875 11.7974330357143  5.884765625 11.70703125  C 5.974609375 11.6166294642857  6.08940972222222 11.5714285714286  6.22916666666667 12  L 16.7708333333333 12  C 16.9105902777778 11.5714285714286  17.025390625 11.6166294642857  17.115234375 11.70703125  C 17.205078125 11.7974330357143  17.25 11.9129464285714  17.25 12.0535714285714  L 17.25 13.0178571428571  C 17.25 13.1584821428571  17.205078125 13.2739955357143  17.115234375 13.3643973214286  C 17.025390625 13.4547991071429  16.9105902777778 13.5  16.7708333333333 13  L 6.22916666666667 13  C 6.08940972222222 13.5  5.974609375 13.4547991071429  5.884765625 13.3643973214286  C 5.794921875 13.2739955357143  5.75 13.1584821428571  5.75 13.0178571428571  Z M 6.22916666666667 15  L 16.7708333333333 15  C 16.9105902777778 15.4285714285714  17.025390625 15.4737723214286  17.115234375 15.5641741071429  C 17.205078125 15.6545758928571  17.25 15.7700892857143  17.25 15.9107142857143  L 17.25 16.875  C 17.25 17.015625  17.205078125 17.1311383928571  17.115234375 17.2215401785714  C 17.025390625 17.3119419642857  16.9105902777778 17.3571428571429  16.7708333333333 17  L 6.22916666666667 17  C 6.08940972222222 17.3571428571429  5.974609375 17.3119419642857  5.884765625 17.2215401785714  C 5.794921875 17.1311383928571  5.75 17.015625  5.75 16.875  L 5.75 15.9107142857143  C 5.75 15.7700892857143  5.794921875 15.6545758928571  5.884765625 15.5641741071429  C 5.974609375 15.4737723214286  6.08940972222222 15.4285714285714  6.22916666666667 15  Z M 6.22916666666667 19  L 16.7708333333333 19  C 16.9105902777778 19.2857142857143  17.025390625 19.3309151785714  17.115234375 19.4213169642857  C 17.205078125 19.51171875  17.25 19.6272321428571  17.25 19.7678571428571  L 17.25 20.7321428571429  C 17.25 20.8727678571429  17.205078125 20.98828125  17.115234375 21.0786830357143  C 17.025390625 21.1690848214286  16.9105902777778 21.2142857142857  16.7708333333333 21  L 6.22916666666667 21  C 6.08940972222222 21.2142857142857  5.974609375 21.1690848214286  5.884765625 21.0786830357143  C 5.794921875 20.98828125  5.75 20.8727678571429  5.75 20.7321428571429  L 5.75 19.7678571428571  C 5.75 19.6272321428571  5.794921875 19.51171875  5.884765625 19.4213169642857  C 5.974609375 19.3309151785714  6.08940972222222 19.2857142857143  6.22916666666667 19  Z " fill-rule="nonzero" fill="#7f7f7f" stroke="none" transform="matrix(1 0 0 1 166 453 )" />
  </g>
</svg>