<?xml version="1.0" encoding="utf-8"?>
<svg version="1.1" xmlns:xlink="http://www.w3.org/1999/xlink" width="22px" height="29px" xmlns="http://www.w3.org/2000/svg">
  <g transform="matrix(1 0 0 1 -166 -211 )">
    <path d="M 17.4453125 18.4486607142857  C 17.5484375 19.03125  17.6 19.6677827380952  17.6 20.3582589285714  C 17.6 21.0487351190476  17.3880208333333 21.6259300595238  16.9640625 22.08984375  C 16.5401041666667 22.5537574404762  16.01875 22.7857142857143  15.4 22.7857142857143  L 6.6 22.7857142857143  C 5.98125 22.7857142857143  5.45989583333333 22.5537574404762  5.0359375 22.08984375  C 4.61197916666667 21.6259300595238  4.4 21.0487351190476  4.4 20.3582589285714  C 4.4 19.6677827380952  4.4515625 19.03125  4.5546875 18.4486607142857  C 4.6578125 17.8660714285714  4.82682291666667 17.3050595238095  5.06171875 16.765625  C 5.29661458333333 16.2261904761905  5.64609375 15.802734375  6.11015625 15.4952566964286  C 6.57421875 15.1877790178571  7.12708333333333 15.0340401785714  7.76875 15.0340401785714  C 8.68541666666667 15.8431919642857  9.7625 16.2477678571429  11 16.2477678571429  C 12.2375 16.2477678571429  13.3145833333333 15.8431919642857  14.23125 15.0340401785714  C 14.8729166666667 15.0340401785714  15.42578125 15.1877790178571  15.88984375 15.4952566964286  C 16.35390625 15.802734375  16.7033854166667 16.2261904761905  16.93828125 16.765625  C 17.1731770833333 17.3050595238095  17.3421875 17.8660714285714  17.4453125 18.4486607142857  Z M 13.79296875 9.36188616071428  C 14.56640625 10.0793340773809  14.953125 10.9451264880952  14.953125 11.9592633928571  C 14.953125 12.973400297619  14.56640625 13.8391927083333  13.79296875 14.556640625  C 13.01953125 15.2740885416667  12.0885416666667 15.6328125  11 15.6328125  C 9.91145833333333 15.6328125  8.98046875 15.2740885416667  8.20703125 14.556640625  C 7.43359375 13.8391927083333  7.046875 12.973400297619  7.046875 11.9592633928571  C 7.046875 10.9451264880952  7.43359375 10.0793340773809  8.20703125 9.36188616071428  C 8.98046875 8.64443824404762  9.91145833333333 8.28571428571428  11 8.28571428571428  C 12.0885416666667 8.28571428571428  13.01953125 8.64443824404762  13.79296875 9.36188616071428  Z M 19.63671875 26.7748325892857  C 19.7455729166667 26.6723400297619  19.8 26.5509672619048  19.8 26.4107142857143  L 19.8 4.14285714285714  L 2.2 4.14285714285714  L 2.2 26.4107142857143  C 2.2 26.5509672619048  2.25442708333333 26.6723400297619  2.36328125 26.7748325892857  C 2.47213541666667 26.8773251488095  2.60104166666667 26.9285714285714  2.75 27  L 19.25 27  C 19.3989583333333 26.9285714285714  19.5278645833333 26.8773251488095  19.63671875 26.7748325892857  Z M 21.1921875 0.760602678571429  C 21.7307291666667 1.26767113095238  22 1.87723214285714  22 2.58928571428571  L 22 26.4107142857143  C 22 27.1227678571429  21.7307291666667 27.7323288690476  21.1921875 28.2393973214286  C 20.6536458333333 28.7464657738095  20.00625 29  19.25 29  L 2.75 29  C 1.99375 29  1.34635416666667 28.7464657738095  0.8078125 28.2393973214286  C 0.269270833333333 27.7323288690476  0 27.1227678571429  0 26.4107142857143  L 0 2.58928571428571  C 0 1.87723214285714  0.269270833333333 1.26767113095238  0.8078125 0.760602678571429  C 1.34635416666667 0.253534226190476  1.99375 0  2.75 0  L 8.8 0  L 8.8 1.55357142857143  C 8.8 1.70461309523809  8.8515625 1.82868303571429  8.9546875 1.92578125  C 9.0578125 2.02287946428571  9.18958333333333 2.07142857142857  9.35 2.07142857142857  L 12.65 2.07142857142857  C 12.8104166666667 2.07142857142857  12.9421875 2.02287946428571  13.0453125 1.92578125  C 13.1484375 1.82868303571429  13.2 1.70461309523809  13.2 1.55357142857143  L 13.2 0  L 19.25 0  C 20.00625 0  20.6536458333333 0.253534226190476  21.1921875 0.760602678571429  Z " fill-rule="nonzero" fill="#f2f2f2" stroke="none" transform="matrix(1 0 0 1 166 211 )" />
  </g>
</svg>