<?xml version="1.0" encoding="utf-8"?>
<svg version="1.1" xmlns:xlink="http://www.w3.org/1999/xlink" width="14px" height="14px" xmlns="http://www.w3.org/2000/svg">
  <g transform="matrix(1 0 0 1 -614 -211 )">
    <path d="M 12.1127450980392 10.8688725490196  C 12.2728758169935 10.7087418300654  12.3529411764706 10.5171568627451  12.3529411764706 10.2941176470588  C 12.3529411764706 10.0653594771242  12.2728758169935 9.87091503267974  12.1127450980392 9.71078431372549  L 10.328431372549 7.92647058823529  C 10.1683006535948 7.76633986928105  9.97385620915033 7.68627450980392  9.74509803921569 7.68627450980392  C 9.50490196078431 7.68627450980392  9.29901960784314 7.77777777777778  9.12745098039216 7.96078431372549  C 9.14460784313725 7.97794117647059  9.19893790849673 8.03084150326797  9.29044117647059 8.11948529411765  C 9.38194444444444 8.20812908496732  9.44342320261438 8.26960784313725  9.47487745098039 8.30392156862745  C 9.50633169934641 8.33823529411765  9.54922385620915 8.39256535947712  9.60355392156863 8.46691176470588  C 9.65788398692811 8.54125816993464  9.69505718954249 8.61417483660131  9.71507352941176 8.68566176470588  C 9.73508986928105 8.75714869281046  9.74509803921569 8.83578431372549  9.74509803921569 8.92156862745098  C 9.74509803921569 9.15032679738562  9.66503267973856 9.34477124183007  9.50490196078431 9.50490196078431  C 9.34477124183007 9.66503267973856  9.15032679738562 9.74509803921569  8.92156862745098 9.74509803921569  C 8.83578431372549 9.74509803921569  8.75714869281046 9.73508986928105  8.68566176470588 9.71507352941176  C 8.61417483660131 9.69505718954248  8.54125816993464 9.6578839869281  8.46691176470588 9.60355392156863  C 8.39256535947712 9.54922385620915  8.33823529411765 9.5063316993464  8.30392156862745 9.47487745098039  C 8.26960784313726 9.44342320261438  8.20812908496732 9.38194444444444  8.11948529411765 9.29044117647059  C 8.03084150326797 9.19893790849673  7.97794117647059 9.14460784313725  7.96078431372549 9.12745098039216  C 7.77205882352941 9.3047385620915  7.67769607843137 9.51348039215686  7.67769607843137 9.75367647058824  C 7.67769607843137 9.98243464052288  7.7577614379085 10.1768790849673  7.91789215686275 10.3370098039216  L 9.68504901960784 12.1127450980392  C 9.83946078431372 12.2671568627451  10.0339052287582 12.344362745098  10.2683823529412 12.344362745098  C 10.4971405228758 12.344362745098  10.6915849673203 12.2700163398693  10.8517156862745 12.1213235294118  L 12.1127450980392 10.8688725490196  Z M 6.03921568627451 4.87254901960784  C 6.22794117647059 4.6952614379085  6.32230392156863 4.48651960784314  6.32230392156863 4.24632352941177  C 6.32230392156863 4.01756535947712  6.2422385620915 3.82312091503268  6.08210784313725 3.66299019607843  L 4.31495098039216 1.88725490196078  C 4.15482026143791 1.72712418300654  3.96037581699346 1.64705882352941  3.73161764705882 1.64705882352941  C 3.50857843137255 1.64705882352941  3.31413398692811 1.72426470588235  3.14828431372549 1.87867647058823  L 1.88725490196078 3.13112745098039  C 1.72712418300654 3.29125816993464  1.64705882352941 3.4828431372549  1.64705882352941 3.70588235294118  C 1.64705882352941 3.93464052287582  1.72712418300654 4.12908496732026  1.88725490196078 4.28921568627451  L 3.67156862745098 6.07352941176471  C 3.82598039215686 6.22794117647059  4.02042483660131 6.30514705882353  4.25490196078431 6.30514705882353  C 4.49509803921569 6.30514705882353  4.70098039215686 6.21650326797386  4.87254901960784 6.03921568627451  C 4.85539215686275 6.02205882352941  4.80106209150327 5.96915849673203  4.70955882352941 5.88051470588235  C 4.61805555555556 5.79187091503268  4.55657679738562 5.73039215686275  4.52512254901961 5.69607843137255  C 4.49366830065359 5.66176470588235  4.45077614379085 5.60743464052288  4.39644607843137 5.53308823529412  C 4.3421160130719 5.45874183006536  4.30494281045752 5.38582516339869  4.28492647058824 5.31433823529412  C 4.26491013071895 5.24285130718954  4.25490196078431 5.16421568627451  4.25490196078431 5.07843137254902  C 4.25490196078431 4.84967320261438  4.33496732026144 4.65522875816993  4.49509803921569 4.49509803921569  C 4.65522875816993 4.33496732026144  4.84967320261438 4.25490196078431  5.07843137254902 4.25490196078431  C 5.16421568627451 4.25490196078431  5.24285130718954 4.26491013071895  5.31433823529412 4.28492647058823  C 5.38582516339869 4.30494281045752  5.45874183006536 4.34211601307189  5.53308823529412 4.39644607843137  C 5.60743464052288 4.45077614379085  5.66176470588235 4.49366830065359  5.69607843137255 4.52512254901961  C 5.73039215686275 4.55657679738562  5.79187091503268 4.61805555555555  5.88051470588235 4.70955882352941  C 5.96915849673203 4.80106209150327  6.02205882352941 4.85539215686275  6.03921568627451 4.87254901960784  Z M 13.2794117647059 8.54411764705882  C 13.7598039215686 9.02450980392157  14 9.6078431372549  14 10.2941176470588  C 14 10.9803921568627  13.7569444444444 11.5608660130719  13.2708333333333 12.0355392156863  L 12.0098039215686 13.2879901960784  C 11.5351307189542 13.7626633986928  10.9546568627451 14  10.2683823529412 14  C 9.57638888888889 14  8.99305555555556 13.7569444444444  8.51838235294118 13.2708333333333  L 6.75122549019608 11.4950980392157  C 6.2765522875817 11.0204248366013  6.03921568627451 10.4399509803922  6.03921568627451 9.75367647058824  C 6.03921568627451 9.05024509803922  6.29084967320261 8.45261437908497  6.79411764705882 7.96078431372549  L 6.03921568627451 7.20588235294118  C 5.54738562091503 7.70915032679739  4.95261437908497 7.96078431372549  4.25490196078431 7.96078431372549  C 3.56862745098039 7.96078431372549  2.98529411764706 7.72058823529412  2.50490196078431 7.24019607843137  L 0.720588235294118 5.45588235294118  C 0.240196078431373 4.97549019607843  0 4.3921568627451  0 3.70588235294118  C 0 3.01960784313725  0.243055555555556 2.4391339869281  0.729166666666667 1.96446078431372  L 1.99019607843137 0.712009803921569  C 2.46486928104575 0.237336601307189  3.0453431372549 0  3.73161764705882 0  C 4.42361111111111 0  5.00694444444445 0.243055555555555  5.48161764705882 0.729166666666667  L 7.24877450980392 2.50490196078431  C 7.7234477124183 2.97957516339869  7.96078431372549 3.56004901960784  7.96078431372549 4.24632352941177  C 7.96078431372549 4.94975490196078  7.70915032679739 5.54738562091503  7.20588235294118 6.03921568627451  L 7.96078431372549 6.79411764705882  C 8.45261437908497 6.29084967320261  9.04738562091503 6.03921568627451  9.74509803921569 6.03921568627451  C 10.4313725490196 6.03921568627451  11.0147058823529 6.27941176470588  11.4950980392157 6.75980392156863  L 13.2794117647059 8.54411764705882  Z " fill-rule="nonzero" fill="#7f7f7f" stroke="none" transform="matrix(1 0 0 1 614 211 )" />
  </g>
</svg>