<?xml version="1.0" encoding="utf-8"?>
<svg version="1.1" xmlns:xlink="http://www.w3.org/1999/xlink" width="13px" height="15px" xmlns="http://www.w3.org/2000/svg">
  <g transform="matrix(1 0 0 1 -340 -588 )">
    <path d="M 1.178125 0  L 11.821875 0  C 11.9776041666667 0  12.1265625 0.0297422339722409  12.26875 0.0892267019167226  C 12.4921875 0.175148711169859  12.669921875 0.310641110376734  12.801953125 0.495703899537343  C 12.933984375 0.68076668869795  13 0.885657633840052  13 1.11037673496365  L 13 13.8896232650364  C 13 14.1143423661599  12.933984375 14.319233311302  12.801953125 14.5042961004627  C 12.669921875 14.6893588896233  12.4921875 14.8248512888301  12.26875 14.9107732980833  C 12.1401041666667 14.9636483807006  11.9911458333333 14.9900859220093  11.821875 14.9900859220093  C 11.496875 14.9900859220093  11.2158854166667 14.8843357567746  10.97890625 14.6728354263054  L 6.5 10.4692663582287  L 2.02109375 14.6728354263054  C 1.77734375 14.8909451421018  1.49635416666667 15  1.178125 15  C 1.02239583333333 15  0.8734375 14.9702577660278  0.73125 14.9107732980833  C 0.5078125 14.8248512888301  0.330078125 14.6893588896233  0.198046875 14.5042961004627  C 0.066015625 14.319233311302  0 14.1143423661599  0 13.8896232650364  L 0 1.11037673496365  C 0 0.885657633840052  0.066015625 0.68076668869795  0.198046875 0.495703899537343  C 0.330078125 0.310641110376734  0.5078125 0.175148711169859  0.73125 0.0892267019167226  C 0.8734375 0.0297422339722409  1.02239583333333 0  1.178125 0  Z " fill-rule="nonzero" fill="#333333" stroke="none" transform="matrix(1 0 0 1 340 588 )" />
  </g>
</svg>