<?xml version="1.0" encoding="utf-8"?>
<svg version="1.1" xmlns:xlink="http://www.w3.org/1999/xlink" width="18px" height="21px" xmlns="http://www.w3.org/2000/svg">
  <g transform="matrix(1 0 0 1 -192 -103 )">
    <path d="M 1.63125 0  L 16.36875 0  C 16.584375 0  16.790625 0.0416391275611372  16.9875 0.124917382683412  C 17.296875 0.245208195637803  17.54296875 0.434897554527428  17.72578125 0.69398545935228  C 17.90859375 0.95307336417713  18 1.23992068737607  18 1.55452742894911  L 18 19.4454725710509  C 18 19.7600793126239  17.90859375 20.0469266358229  17.72578125 20.3060145406477  C 17.54296875 20.5651024454726  17.296875 20.7547918043622  16.9875 20.8750826173166  C 16.809375 20.9491077329808  16.603125 20.986120290813  16.36875 20.986120290813  C 15.91875 20.986120290813  15.5296875 20.8380700594845  15.2015625 20.5419695968275  L 9 14.6569729015202  L 2.7984375 20.5419695968275  C 2.4609375 20.8473231989425  2.071875 21  1.63125 21  C 1.415625 21  1.209375 20.9583608724389  1.0125 20.8750826173166  C 0.703125 20.7547918043622  0.45703125 20.5651024454726  0.27421875 20.3060145406477  C 0.09140625 20.0469266358229  0 19.7600793126239  0 19.4454725710509  L 0 1.55452742894911  C 0 1.23992068737607  0.09140625 0.95307336417713  0.27421875 0.69398545935228  C 0.45703125 0.434897554527428  0.703125 0.245208195637803  1.0125 0.124917382683412  C 1.209375 0.0416391275611372  1.415625 0  1.63125 0  Z " fill-rule="nonzero" fill="#7f7f7f" stroke="none" transform="matrix(1 0 0 1 192 103 )" />
  </g>
</svg>