<?xml version="1.0" encoding="utf-8"?>
<svg version="1.1" xmlns:xlink="http://www.w3.org/1999/xlink" width="13px" height="13px" xmlns="http://www.w3.org/2000/svg">
  <g transform="matrix(1 0 0 1 -339 -620 )">
    <path d="M 10.740234375 8.28844905905256  C 10.9828559027778 7.71760761410339  11.1041666666667 7.12005191434134  11.1041666666667 6.49578195976638  C 11.1041666666667 5.59030932295046  10.8587239583333 4.76076141033961  10.3678385416667 4.00713822193381  L 3.986328125 10.3595068137573  C 4.75933159722222 10.8600475881462  5.59722222222222 11.1103179753407  6.5 11.1103179753407  C 7.12630208333333 11.1103179753407  7.72298177083333 10.9879948085659  8.2900390625 10.7433484750162  C 8.85709635416667 10.4987021414666  9.34657118055556 10.1711010166559  9.75846354166667 9.76054510058404  C 10.1703559027778 9.34998918451222  10.4976128472222 8.85929050400173  10.740234375 8.28844905905256  Z M 1.89583333333333 6.49578195976638  C 1.89583333333333 7.40687865022712  2.14691840277778 8.24767467012762  2.64908854166667 9.01817001946788  L 9.0390625 2.65736534717716  C 8.27734375 2.14557646549859  7.43098958333333 1.88968202465931  6.5 1.88968202465931  C 5.66493055555556 1.88968202465931  4.89474826388889 2.09495998269522  4.189453125 2.50551589876703  C 3.48415798611111 2.91607181483885  2.92556423611111 3.47566515249838  2.513671875 4.18429591174562  C 2.10177951388889 4.89292667099286  1.89583333333333 5.66342202033312  1.89583333333333 6.49578195976638  Z M 12.4837239583333 3.96917585983128  C 12.8279079861111 4.77060350421804  13 5.61280553752974  13 6.49578195976638  C 13 7.37875838200303  12.8279079861111 8.22236642872594  12.4837239583333 9.02660609993511  C 12.1395399305556 9.83084577114428  11.6782769097222 10.5226043694571  11.0999348958333 11.1018818948735  C 10.5215928819444 11.6811594202899  9.83040364583333 12.142331819165  9.0263671875 12.485399091499  C 8.22233072916667 12.828466363833  7.38020833333333 13  6.5 13  C 5.61979166666667 13  4.77766927083333 12.828466363833  3.9736328125 12.485399091499  C 3.16959635416667 12.142331819165  2.47840711805556 11.6811594202899  1.90006510416667 11.1018818948735  C 1.32172309027778 10.5226043694571  0.860460069444445 9.83084577114428  0.516276041666667 9.02660609993511  C 0.172092013888889 8.22236642872594  0 7.37875838200303  0 6.49578195976638  C 0 5.61280553752974  0.172092013888889 4.77060350421804  0.516276041666667 3.96917585983128  C 0.860460069444445 3.16774821544452  1.32172309027778 2.47739563054294  1.90006510416667 1.89811810512654  C 2.47840711805556 1.31884057971014  3.16959635416667 0.857668180834954  3.9736328125 0.514600908500974  C 4.77766927083333 0.17153363616699  5.61979166666667 0  6.5 0  C 7.38020833333333 0  8.22233072916667 0.17153363616699  9.0263671875 0.514600908500974  C 9.83040364583333 0.857668180834954  10.5215928819444 1.31884057971014  11.0999348958333 1.89811810512654  C 11.6782769097222 2.47739563054294  12.1395399305556 3.16774821544452  12.4837239583333 3.96917585983128  Z " fill-rule="nonzero" fill="#7f7f7f" stroke="none" transform="matrix(1 0 0 1 339 620 )" />
  </g>
</svg>