<?xml version="1.0" encoding="utf-8"?>
<svg version="1.1" xmlns:xlink="http://www.w3.org/1999/xlink" width="16px" height="8px" xmlns="http://www.w3.org/2000/svg">
  <g transform="matrix(1 0 0 1 -110 -283 )">
    <path d="M 15.8396793587174 0.824742268041234  C 15.9465597862391 0.916380297823594  16 1.02176403207329  16 1.14089347079039  C 16 1.26002290950743  15.9465597862391 1.36540664375718  15.8396793587174 1.45704467353954  L 8.3687374749499 7.86254295532643  C 8.26185704742819 7.95418098510879  8.13894455577822 8  8 8  C 7.86105544422178 8  7.73814295257181 7.95418098510879  7.6312625250501 7.86254295532643  L 0.160320641282567 1.45704467353954  C 0.053440213760851 1.36540664375718  0 1.26002290950743  0 1.14089347079039  C 0 1.02176403207329  0.053440213760851 0.916380297823594  0.160320641282567 0.824742268041234  L 0.961923847695388 0.137457044673567  C 1.0688042752171 0.0458190148911513  1.19171676686707 0  1.33066132264528 0  C 1.46960587842351 0  1.59251837007348 0.0458190148911513  1.69939879759519 0.137457044673567  L 5.92172359521885 3.75762899315157  L 8 5.53951890034364  L 14.3006012024048 0.137457044673567  C 14.4074816299265 0.0458190148911513  14.5303941215765 0  14.6693386773547 0  C 14.8082832331329 0  14.9311957247829 0.0458190148911513  15.0380761523046 0.137457044673567  L 15.8396793587174 0.824742268041234  Z " fill-rule="nonzero" fill="#7f7f7f" stroke="none" transform="matrix(1 0 0 1 110 283 )" />
  </g>
</svg>