<?xml version="1.0" encoding="utf-8"?>
<svg version="1.1" xmlns:xlink="http://www.w3.org/1999/xlink" width="16px" height="16px" xmlns="http://www.w3.org/2000/svg">
  <g transform="matrix(1 0 0 1 -402 -719 )">
    <path d="M 410 719  C 414.48 719  418 722.52  418 727  C 418 731.48  414.48 735  410 735  C 405.52 735  402 731.48  402 727  C 402 722.52  405.52 719  410 719  Z " fill-rule="nonzero" fill="#103f91" stroke="none" />
    <path d="M 410 719.5  C 414.2 719.5  417.5 722.8  417.5 727  C 417.5 731.2  414.2 734.5  410 734.5  C 405.8 734.5  402.5 731.2  402.5 727  C 402.5 722.8  405.8 719.5  410 719.5  Z " stroke-width="1" stroke="#103f91" fill="none" />
  </g>
</svg>