<?xml version="1.0" encoding="utf-8"?>
<svg version="1.1" xmlns:xlink="http://www.w3.org/1999/xlink" width="16px" height="16px" xmlns="http://www.w3.org/2000/svg">
  <g transform="matrix(1 0 0 1 -439 -719 )">
    <path d="M 447 719  C 451.48 719  455 722.52  455 727  C 455 731.48  451.48 735  447 735  C 442.52 735  439 731.48  439 727  C 439 722.52  442.52 719  447 719  Z " fill-rule="nonzero" fill="#d9001b" stroke="none" />
    <path d="M 447 719.5  C 451.2 719.5  454.5 722.8  454.5 727  C 454.5 731.2  451.2 734.5  447 734.5  C 442.8 734.5  439.5 731.2  439.5 727  C 439.5 722.8  442.8 719.5  447 719.5  Z " stroke-width="1" stroke="#d9001b" fill="none" />
  </g>
</svg>