<?xml version="1.0" encoding="utf-8"?>
<svg version="1.1" xmlns:xlink="http://www.w3.org/1999/xlink" width="21px" height="19px" xmlns="http://www.w3.org/2000/svg">
  <g transform="matrix(1 0 0 1 -219 -8 )">
    <path d="M 20.77734375 6.305625  C 20.92578125 6.45604166666667  21 6.63416666666667  21 6.84  C 21 7.04583333333333  20.92578125 7.22395833333333  20.77734375 7.374375  L 14.77734375 13.454375  C 14.62890625 13.6047916666667  14.453125 13.68  14.25 13.68  C 14.046875 13.68  13.87109375 13.6047916666667  13.72265625 13.454375  C 13.57421875 13.3039583333333  13.5 13.1258333333333  13.5 12.92  L 13.5 9.88  L 10.875 9.88  C 10.109375 9.88  9.423828125 9.90375  8.818359375 9.95125  C 8.212890625 9.99875  7.611328125 10.0838541666667  7.013671875 10.2065625  C 6.416015625 10.3292708333333  5.896484375 10.4975  5.455078125 10.71125  C 5.013671875 10.925  4.6015625 11.2001041666667  4.21875 11.5365625  C 3.8359375 11.8730208333333  3.5234375 12.2728125  3.28125 12.7359375  C 3.0390625 13.1990625  2.849609375 13.7472916666667  2.712890625 14.380625  C 2.576171875 15.0139583333333  2.5078125 15.7304166666667  2.5078125 16.53  C 2.5078125 16.9654166666667  2.52734375 17.4522916666667  2.56640625 17.990625  C 2.56640625 18.038125  2.576171875 18.1311458333333  2.595703125 18.2696875  C 2.615234375 18.4082291666667  2.625 18.513125  2.625 18.584375  C 2.625 18.703125  2.591796875 18.8020833333333  2.525390625 18.88125  C 2.458984375 18.9604166666667  2.3671875 19  2.25 19  C 2.125 19  2.015625 18.9327083333333  1.921875 18.798125  C 1.8671875 18.726875  1.81640625 18.6397916666667  1.76953125 18.536875  C 1.72265625 18.4339583333333  1.669921875 18.3152083333333  1.611328125 18.180625  C 1.552734375 18.0460416666667  1.51171875 17.9510416666667  1.48828125 17.895625  C 0.49609375 15.639375  0 13.8541666666667  0 12.54  C 0 10.9645833333333  0.20703125 9.64645833333333  0.62109375 8.585625  C 1.88671875 5.39520833333333  5.3046875 3.8  10.875 3.8  L 13.5 3.8  L 13.5 0.760000000000001  C 13.5 0.554166666666665  13.57421875 0.376041666666664  13.72265625 0.225624999999999  C 13.87109375 0.0752083333333324  14.046875 0  14.25 0  C 14.453125 0  14.62890625 0.0752083333333324  14.77734375 0.225624999999999  L 20.77734375 6.305625  Z " fill-rule="nonzero" fill="#7f7f7f" stroke="none" transform="matrix(1 0 0 1 219 8 )" />
  </g>
</svg>