<?xml version="1.0" encoding="utf-8"?>
<svg version="1.1" xmlns:xlink="http://www.w3.org/1999/xlink" width="22px" height="24px" xmlns="http://www.w3.org/2000/svg">
  <g transform="matrix(1 0 0 1 -7 -2 )">
    <path d="M 18.60546875 20.0336538461538  C 18.4240451388889 19.8509615384615  18.3333333333333 19.6346153846154  18.3333333333333 19.3846153846154  C 18.3333333333333 19.1346153846154  18.4240451388889 18.9182692307692  18.60546875 18.7355769230769  C 18.7868923611111 18.5528846153846  19.0017361111111 18.4615384615385  19.25 18.4615384615385  C 19.4982638888889 18.4615384615385  19.7131076388889 18.5528846153846  19.89453125 18.7355769230769  C 20.0759548611111 18.9182692307692  20.1666666666667 19.1346153846154  20.1666666666667 19.3846153846154  C 20.1666666666667 19.6346153846154  20.0759548611111 19.8509615384615  19.89453125 20.0336538461538  C 19.7131076388889 20.2163461538462  19.4982638888889 20.3076923076923  19.25 20.3076923076923  C 19.0017361111111 20.3076923076923  18.7868923611111 20.2163461538462  18.60546875 20.0336538461538  Z M 2.14127604166667 12.2451923076923  C 1.93598090277777 11.8028846153846  1.83333333333333 11.4134615384615  1.83333333333333 11.0769230769231  C 1.83333333333333 10.5865384615385  2.01953125 10.15625  2.39192708333333 9.78605769230769  C 2.76432291666667 9.41586538461538  3.18923611111111 9.23076923076923  3.66666666666667 9.23076923076923  L 8.70833333333333 9.23076923076923  C 8.70833333333333 8.67307692307692  8.47916666666667 7.90625  8.02083333333333 6.93028846153846  C 7.5625 5.95432692307692  7.33333333333333 5.18269230769231  7.33333333333333 4.61538461538461  C 7.33333333333333 3.67307692307692  7.48611111111111 2.97596153846154  7.79166666666667 2.52403846153846  C 8.09722222222222 2.07211538461538  8.70833333333333 1.84615384615384  9.625 1.84615384615384  C 9.87326388888889 2.09615384615384  10.0546875 2.50480769230769  10.1692708333333 3.07211538461539  C 10.2838541666667 3.63942307692308  10.4294704861111 4.24278846153846  10.6061197916667 4.88221153846154  C 10.7827690972222 5.52163461538461  11.0668402777778 6.04807692307692  11.4583333333333 6.46153846153846  C 11.6684027777778 6.68269230769231  12.0360243055556 7.12019230769231  12.5611979166667 7.77403846153846  C 12.5993923611111 7.82211538461538  12.7092013888889 7.96634615384615  12.890625 8.20673076923077  C 13.0720486111111 8.44711538461538  13.2224392361111 8.64423076923077  13.341796875 8.79807692307692  C 13.4611545138889 8.95192307692308  13.6258680555556 9.15625  13.8359375 9.41105769230769  C 14.0460069444444 9.66586538461538  14.2369791666667 9.87740384615384  14.4088541666667 10.0456730769231  C 14.5807291666667 10.2139423076923  14.7645399305556 10.3846153846154  14.9602864583333 10.5576923076923  C 15.1560329861111 10.7307692307692  15.3470052083333 10.8605769230769  15.533203125 10.9471153846154  C 15.7194010416667 11.0336538461538  15.8888888888889 11.0769230769231  16.0416666666667 11.0769230769231  L 16.5 11.0769230769231  L 16.5 20.3076923076923  L 16.0416666666667 20.3076923076923  C 15.9175347222222 20.3076923076923  15.7671440972222 20.3221153846154  15.5904947916667 20.3509615384615  C 15.4138454861111 20.3798076923077  15.2562934027778 20.4110576923077  15.1178385416667 20.4447115384615  C 14.9793836805556 20.4783653846154  14.7979600694444 20.53125  14.5735677083333 20.6033653846154  C 14.3491753472222 20.6754807692308  14.1820746527778 20.7307692307692  14.072265625 20.7692307692308  C 13.9624565972222 20.8076923076923  13.79296875 20.8677884615385  13.5638020833333 20.9495192307692  C 13.3346354166667 21.03125  13.1961805555556 21.0817307692308  13.1484375 21.1009615384615  C 11.1336805555556 21.8028846153846  9.50086805555555 22.1538461538462  8.25 22.1538461538462  L 6.51692708333333 22.1538461538462  C 4.68359375 22.1538461538462  3.76692708333333 21.3509615384615  3.76692708333333 19.7451923076923  C 3.76692708333333 19.4951923076923  3.79079861111111 19.2259615384615  3.83854166666667 18.9375  C 3.55208333333333 18.7836538461538  3.32530381944444 18.53125  3.158203125 18.1802884615385  C 2.99110243055555 17.8293269230769  2.90755208333333 17.4759615384615  2.90755208333333 17.1201923076923  C 2.90755208333333 16.7644230769231  2.99348958333333 16.4326923076923  3.16536458333333 16.125  C 2.65928819444444 15.6442307692308  2.40625 15.0721153846154  2.40625 14.4086538461538  C 2.40625 14.1682692307692  2.45399305555555 13.9014423076923  2.54947916666667 13.6081730769231  C 2.64496527777778 13.3149038461538  2.76432291666667 13.0865384615385  2.90755208333333 12.9230769230769  C 2.60199652777778 12.9134615384615  2.34657118055555 12.6875  2.14127604166667 12.2451923076923  Z M 1.08854166666667 8.48076923076923  C 0.362847222222225 9.21153846153846  0 10.0721153846154  0 11.0625  C 0 11.9182692307692  0.233940972222225 12.7019230769231  0.701822916666666 13.4134615384615  C 0.615885416666666 13.7307692307692  0.572916666666666 14.0625  0.572916666666666 14.4086538461538  C 0.572916666666666 15.1490384615385  0.754340277777775 15.8413461538462  1.1171875 16.4855769230769  C 1.08854166666667 16.6875  1.07421875 16.8942307692308  1.07421875 17.1057692307692  C 1.07421875 18.0769230769231  1.36067708333333 18.9326923076923  1.93359375 19.6730769230769  C 1.92404513888889 21.0096153846154  2.32986111111111 22.0649038461538  3.15104166666667 22.8389423076923  C 3.97222222222222 23.6129807692308  5.05598958333333 24  6.40234375 24  L 6.91796875 24  L 8.25 24  C 9.16666666666667 24  10.0713975694444 23.8918269230769  10.9641927083333 23.6754807692308  C 11.8569878472222 23.4591346153846  12.890625 23.1442307692308  14.0651041666667 22.7307692307692  C 15.1727430555556 22.3461538461538  15.8315972222222 22.1538461538462  16.0416666666667 22.1538461538462  L 20.1666666666667 22.1538461538462  C 20.6727430555556 22.1538461538462  21.1048177083333 21.9735576923077  21.462890625 21.6129807692308  C 21.8209635416667 21.2524038461538  22 20.8173076923077  22 20.3076923076923  L 22 11.0769230769231  C 22 10.5673076923077  21.8209635416667 10.1322115384615  21.462890625 9.77163461538461  C 21.1048177083333 9.41105769230769  20.6727430555556 9.23076923076923  20.1666666666667 9.23076923076923  L 16.2421875 9.23076923076923  C 15.8984375 9  15.2443576388889 8.25480769230769  14.2799479166667 6.99519230769231  C 13.7261284722222 6.27403846153846  13.2152777777778 5.65865384615384  12.7473958333333 5.14903846153846  C 12.5182291666667 4.90865384615384  12.3487413194444 4.49759615384615  12.2389322916667 3.91586538461539  C 12.1291232638889 3.33413461538461  11.9835069444444 2.72596153846154  11.8020833333333 2.09134615384616  C 11.6206597222222 1.45673076923077  11.3246527777778 0.9375  10.9140625 0.533653846153845  C 10.5416666666667 0.177884615384617  10.1119791666667 0  9.625 0  C 8.82291666666667 0  8.10199652777778 0.156250000000002  7.46223958333333 0.46875  C 6.82248263888889 0.781249999999998  6.33550347222222 1.26923076923077  6.00130208333333 1.93269230769231  C 5.66710069444444 2.59615384615384  5.5 3.49038461538461  5.5 4.61538461538461  C 5.5 5.50961538461539  5.72916666666667 6.43269230769231  6.1875 7.38461538461539  L 3.66666666666667 7.38461538461539  C 2.67361111111111 7.38461538461539  1.81423611111111 7.75  1.08854166666667 8.48076923076923  Z " fill-rule="nonzero" fill="#7f7f7f" stroke="none" transform="matrix(1 0 0 1 7 2 )" />
  </g>
</svg>