<?xml version="1.0" encoding="utf-8"?>
<svg version="1.1" xmlns:xlink="http://www.w3.org/1999/xlink" width="17px" height="14px" xmlns="http://www.w3.org/2000/svg">
  <g transform="matrix(1 0 0 1 -416 -192 )">
    <path d="M 5.17083333333333 2.84375  C 5.50138888888889 3.18402777777778  5.66666666666667 3.59722222222222  5.66666666666667 4.08333333333333  C 5.66666666666667 4.56944444444444  5.50138888888889 4.98263888888889  5.17083333333333 5.32291666666667  C 4.84027777777778 5.66319444444445  4.43888888888889 5.83333333333333  3.96666666666667 5.83333333333333  C 3.49444444444444 5.83333333333333  3.09305555555556 5.66319444444445  2.7625 5.32291666666667  C 2.43194444444444 4.98263888888889  2.26666666666667 4.56944444444444  2.26666666666667 4.08333333333333  C 2.26666666666667 3.59722222222222  2.43194444444444 3.18402777777778  2.7625 2.84375  C 3.09305555555556 2.50347222222222  3.49444444444444 2.33333333333333  3.96666666666667 2.33333333333333  C 4.43888888888889 2.33333333333333  4.84027777777778 2.50347222222222  5.17083333333333 2.84375  Z M 11.05 3.79166666666667  L 14.7333333333333 7.58333333333333  L 14.7333333333333 11.6666666666667  L 2.26666666666667 11.6666666666667  L 2.26666666666667 9.91666666666667  L 5.1 7  L 6.51666666666667 8.45833333333333  L 11.05 3.79166666666667  Z M 15.7825520833333 1.25325520833333  C 15.7264756944444 1.19552951388889  15.6600694444444 1.16666666666667  15.5833333333333 1.16666666666667  L 1.41666666666667 1.16666666666667  C 1.33993055555556 1.16666666666667  1.27352430555556 1.19552951388889  1.21744791666667 1.25325520833333  C 1.16137152777778 1.31098090277778  1.13333333333333 1.37934027777778  1.13333333333333 1.45833333333333  L 1.13333333333333 12.5416666666667  C 1.13333333333333 12.6206597222222  1.16137152777778 12.6890190972222  1.21744791666667 12.7467447916667  C 1.27352430555556 12.8044704861111  1.33993055555556 12.8333333333333  1.41666666666667 12.8333333333333  L 15.5833333333333 12.8333333333333  C 15.6600694444444 12.8333333333333  15.7264756944444 12.8044704861111  15.7825520833333 12.7467447916667  C 15.8386284722222 12.6890190972222  15.8666666666667 12.6206597222222  15.8666666666667 12.5416666666667  L 15.8666666666667 1.45833333333333  C 15.8666666666667 1.37934027777778  15.8386284722222 1.31098090277778  15.7825520833333 1.25325520833333  Z M 16.5838541666667 0.428385416666667  C 16.8612847222222 0.713975694444444  17 1.05729166666667  17 1.45833333333333  L 17 12.5416666666667  C 17 12.9427083333333  16.8612847222222 13.2860243055556  16.5838541666667 13.5716145833333  C 16.3064236111111 13.8572048611111  15.9729166666667 14  15.5833333333333 14  L 1.41666666666667 14  C 1.02708333333333 14  0.693576388888889 13.8572048611111  0.416145833333333 13.5716145833333  C 0.138715277777778 13.2860243055556  0 12.9427083333333  0 12.5416666666667  L 0 1.45833333333333  C 0 1.05729166666667  0.138715277777778 0.713975694444444  0.416145833333333 0.428385416666667  C 0.693576388888889 0.142795138888888  1.02708333333333 0  1.41666666666667 0  L 15.5833333333333 0  C 15.9729166666667 0  16.3064236111111 0.142795138888888  16.5838541666667 0.428385416666667  Z " fill-rule="nonzero" fill="#154eaa" stroke="none" transform="matrix(1 0 0 1 416 192 )" />
  </g>
</svg>