<?xml version="1.0" encoding="utf-8"?>
<svg version="1.1" xmlns:xlink="http://www.w3.org/1999/xlink" width="22px" height="22px" xmlns="http://www.w3.org/2000/svg">
  <g transform="matrix(1 0 0 1 -341 -8 )">
    <path d="M 21.2147239263804 0  C 21.3783231083845 0  21.5255623721881 0.0450148809523829  21.6564417177914 0.135044642857144  C 21.9263803680982 0.331473214285715  22.0368098159509 0.593377976190476  21.9877300613497 0.920758928571429  L 18.8466257668712 19.7779017857143  C 18.8057259713701 20.0152529761905  18.6748466257669 20.1994047619048  18.4539877300613 20.3303571428571  C 18.3394683026585 20.3958333333333  18.2126789366053 20.4285714285714  18.0736196319018 20.4285714285714  C 17.9836400817996 20.4285714285714  17.8854805725971 20.4081101190476  17.7791411042945 20.3671875  L 12.2208588957055 18.0959821428571  L 9.25153374233129 21.7176339285714  C 9.10429447852761 21.9058779761905  8.9038854805726 22  8.65030674846626 22  C 8.5439672801636 22  8.45398773006135 21.983630952381  8.38036809815951 21.9508928571429  C 8.22494887525562 21.8936011904762  8.10020449897751 21.7974330357143  8.00613496932515 21.6623883928571  C 7.9120654396728 21.52734375  7.86503067484663 21.3779761904762  7.86503067484663 21.2142857142857  L 7.86503067484663 16.9296875  L 18.4662576687117 3.92857142857143  L 5.34969325153374 15.2845982142857  L 0.503067484662577 13.2957589285714  C 0.20040899795501 13.1811755952381  0.0368098159509202 12.9561011904762  0.0122699386503067 12.6205357142857  C -0.00408997955010225 12.2931547619048  0.12678936605317 12.0517113095238  0.404907975460123 11.8962053571429  L 20.8220858895706 0.110491071428571  C 20.9447852760736 0.0368303571428561  21.0756646216769 0  21.2147239263804 0  Z " fill-rule="nonzero" fill="#7f7f7f" stroke="none" transform="matrix(1 0 0 1 341 8 )" />
  </g>
</svg>