<?xml version="1.0" encoding="utf-8"?>
<svg version="1.1" xmlns:xlink="http://www.w3.org/1999/xlink" width="18px" height="12px" xmlns="http://www.w3.org/2000/svg">
  <g transform="matrix(1 0 0 1 -553 -193 )">
    <path d="M 17.6082589285714 0.346875  C 17.8694196428571 0.453125  18 0.6375  18 0.899999999999999  L 18 11.1  C 18 11.3625  17.8694196428571 11.546875  17.6082589285714 11.653125  C 17.5212053571429 11.684375  17.4375 11.7  17.3571428571429 11.7  C 17.1763392857143 11.7  17.0256696428571 11.640625  16.9051339285714 11.521875  L 12.8571428571429 7.74375  L 12.8571428571429 9.3  C 12.8571428571429 10.04375  12.57421875 10.6796875  12.0083705357143 11.2078125  C 11.4425223214286 11.7359375  10.7611607142857 12  9.96428571428572 12  L 2.89285714285714 12  C 2.09598214285714 12  1.41462053571429 11.7359375  0.848772321428571 11.2078125  C 0.282924107142857 10.6796875  0 10.04375  0 9.3  L 0 2.7  C 0 1.95625  0.282924107142857 1.3203125  0.848772321428571 0.7921875  C 1.41462053571429 0.264062499999998  2.09598214285714 0  2.89285714285714 0  L 9.96428571428572 0  C 10.7611607142857 0  11.4425223214286 0.264062499999998  12.0083705357143 0.7921875  C 12.57421875 1.3203125  12.8571428571429 1.95625  12.8571428571429 2.7  L 12.8571428571429 4.246875  L 16.9051339285714 0.478124999999999  C 17.0256696428571 0.359375  17.1763392857143 0.3  17.3571428571429 0.3  C 17.4375 0.3  17.5212053571429 0.315624999999998  17.6082589285714 0.346875  Z " fill-rule="nonzero" fill="#154eaa" stroke="none" transform="matrix(1 0 0 1 553 193 )" />
  </g>
</svg>