<?xml version="1.0" encoding="utf-8"?>
<svg version="1.1" xmlns:xlink="http://www.w3.org/1999/xlink" width="4px" height="4px" xmlns="http://www.w3.org/2000/svg">
  <g transform="matrix(1 0 0 1 -546 -279 )">
    <path d="M 548 279  C 549.12 279  550 279.88  550 281  C 550 282.12  549.12 283  548 283  C 546.88 283  546 282.12  546 281  C 546 279.88  546.88 279  548 279  Z " fill-rule="nonzero" fill="#7f7f7f" stroke="none" />
    <path d="M 548 279.5  C 548.84 279.5  549.5 280.16  549.5 281  C 549.5 281.84  548.84 282.5  548 282.5  C 547.16 282.5  546.5 281.84  546.5 281  C 546.5 280.16  547.16 279.5  548 279.5  Z " stroke-width="1" stroke="#d7d7d7" fill="none" />
  </g>
</svg>