<?xml version="1.0" encoding="utf-8"?>
<svg version="1.1" xmlns:xlink="http://www.w3.org/1999/xlink" width="13px" height="15px" xmlns="http://www.w3.org/2000/svg">
  <g transform="matrix(1 0 0 1 -822 -191 )">
    <path d="M 9.78385416666667 0.569196428571429  L 12.4244791666667 3.18080357142857  C 12.5824652777778 3.33705357142857  12.7178819444444 3.54910714285714  12.8307291666667 3.81696428571429  C 12.9435763888889 4.08482142857143  13 4.33035714285714  13 4.55357142857143  L 13 14.1964285714286  C 13 14.4196428571429  12.9210069444444 14.609375  12.7630208333333 14.765625  C 12.6050347222222 14.921875  12.4131944444444 15  12.1875 15  L 0.8125 15  C 0.586805555555556 15  0.394965277777778 14.921875  0.236979166666667 14.765625  C 0.0789930555555556 14.609375  0 14.4196428571429  0 14.1964285714286  L 0 0.803571428571429  C 0 0.580357142857142  0.0789930555555556 0.390624999999999  0.236979166666667 0.234375  C 0.394965277777778 0.0781250000000006  0.586805555555556 0  0.8125 0  L 8.39583333333333 0  C 8.62152777777778 0  8.86979166666667 0.0558035714285721  9.140625 0.167410714285715  C 9.41145833333333 0.279017857142857  9.62586805555556 0.412946428571428  9.78385416666667 0.569196428571429  Z M 9.013671875 1.32254464285714  C 8.94596354166667 1.25558035714286  8.83029513888889 1.19419642857143  8.66666666666667 1.13839285714286  L 8.66666666666667 4.28571428571429  L 11.8489583333333 4.28571428571429  C 11.7925347222222 4.12388392857143  11.73046875 4.00948660714286  11.6627604166667 3.94252232142857  L 9.013671875 1.32254464285714  Z M 1 14  L 11.9166666666667 14  L 11.9166666666667 5.35714285714286  L 8.39583333333333 5.35714285714286  C 8.17013888888889 5.35714285714286  7.97829861111111 5.27901785714286  7.8203125 5.12276785714286  C 7.66232638888889 4.96651785714286  7.58333333333333 4.77678571428571  7.58333333333333 4.55357142857143  L 7.58333333333333 1.07142857142857  L 1 1.07142857142857  L 1 14  Z M 3.25 7.23214285714286  L 3.25 6.69642857142857  C 3.25 6.61830357142857  3.275390625 6.55412946428571  3.326171875 6.50390625  C 3.376953125 6.45368303571429  3.44184027777778 6.42857142857143  3.52083333333333 6.42857142857143  L 9.47916666666667 6.42857142857143  C 9.55815972222222 6.42857142857143  9.623046875 6.45368303571429  9.673828125 6.50390625  C 9.724609375 6.55412946428571  9.75 6.61830357142857  9.75 6.69642857142857  L 9.75 7.23214285714286  C 9.75 7.31026785714286  9.724609375 7.37444196428571  9.673828125 7.42466517857143  C 9.623046875 7.47488839285714  9.55815972222222 7.5  9.47916666666667 7.5  L 3.52083333333333 7.5  C 3.44184027777778 7.5  3.376953125 7.47488839285714  3.326171875 7.42466517857143  C 3.275390625 7.37444196428571  3.25 7.31026785714286  3.25 7.23214285714286  Z M 3.52083333333333 8.57142857142857  L 9.47916666666667 8.57142857142857  C 9.55815972222222 8.57142857142857  9.623046875 8.59654017857143  9.673828125 8.64676339285714  C 9.724609375 8.69698660714286  9.75 8.76116071428571  9.75 8.83928571428572  L 9.75 9.375  C 9.75 9.453125  9.724609375 9.51729910714286  9.673828125 9.56752232142857  C 9.623046875 9.61774553571428  9.55815972222222 9.64285714285714  9.47916666666667 9.64285714285714  L 3.52083333333333 9.64285714285714  C 3.44184027777778 9.64285714285714  3.376953125 9.61774553571428  3.326171875 9.56752232142857  C 3.275390625 9.51729910714286  3.25 9.453125  3.25 9.375  L 3.25 8.83928571428572  C 3.25 8.76116071428571  3.275390625 8.69698660714286  3.326171875 8.64676339285714  C 3.376953125 8.59654017857143  3.44184027777778 8.57142857142857  3.52083333333333 8.57142857142857  Z M 3.52083333333333 10.7142857142857  L 9.47916666666667 10.7142857142857  C 9.55815972222222 10.7142857142857  9.623046875 10.7393973214286  9.673828125 10.7896205357143  C 9.724609375 10.83984375  9.75 10.9040178571429  9.75 10.9821428571429  L 9.75 11.5178571428571  C 9.75 11.5959821428571  9.724609375 11.66015625  9.673828125 11.7103794642857  C 9.623046875 11.7606026785714  9.55815972222222 11.7857142857143  9.47916666666667 11.7857142857143  L 3.52083333333333 11.7857142857143  C 3.44184027777778 11.7857142857143  3.376953125 11.7606026785714  3.326171875 11.7103794642857  C 3.275390625 11.66015625  3.25 11.5959821428571  3.25 11.5178571428571  L 3.25 10.9821428571429  C 3.25 10.9040178571429  3.275390625 10.83984375  3.326171875 10.7896205357143  C 3.376953125 10.7393973214286  3.44184027777778 10.7142857142857  3.52083333333333 10.7142857142857  Z " fill-rule="nonzero" fill="#154eaa" stroke="none" transform="matrix(1 0 0 1 822 191 )" />
  </g>
</svg>