<?xml version="1.0" encoding="utf-8"?>
<svg version="1.1" xmlns:xlink="http://www.w3.org/1999/xlink" width="16px" height="8px" xmlns="http://www.w3.org/2000/svg">
  <g transform="matrix(1 0 0 1 -110 -551 )">
    <path d="M 15.8396793587174 0.824742268041237  C 15.9465597862391 0.916380297823594  16 1.02176403207331  16 1.14089347079038  C 16 1.26002290950744  15.9465597862391 1.36540664375716  15.8396793587174 1.45704467353952  L 8.3687374749499 7.86254295532646  C 8.26185704742819 7.95418098510882  8.13894455577822 8  8 8  C 7.86105544422178 8  7.73814295257181 7.95418098510882  7.6312625250501 7.86254295532646  L 0.160320641282565 1.45704467353952  C 0.0534402137608552 1.36540664375716  0 1.26002290950744  0 1.14089347079038  C 0 1.02176403207331  0.0534402137608552 0.916380297823594  0.160320641282565 0.824742268041237  L 0.961923847695391 0.13745704467354  C 1.0688042752171 0.0458190148911788  1.19171676686707 0  1.33066132264529 0  C 1.46960587842351 0  1.59251837007348 0.0458190148911788  1.69939879759519 0.13745704467354  L 8 5.53951890034364  L 14.3006012024048 0.13745704467354  C 14.4074816299265 0.0458190148911788  14.5303941215765 0  14.6693386773547 0  C 14.8082832331329 0  14.9311957247829 0.0458190148911788  15.0380761523046 0.13745704467354  L 15.8396793587174 0.824742268041237  Z " fill-rule="nonzero" fill="#7f7f7f" stroke="none" transform="matrix(1 0 0 1 110 551 )" />
  </g>
</svg>