<?xml version="1.0" encoding="utf-8"?>
<svg version="1.1" xmlns:xlink="http://www.w3.org/1999/xlink" width="12px" height="11px" xmlns="http://www.w3.org/2000/svg">
  <g transform="matrix(1 0 0 1 -17 -49 )">
    <path d="M 3.2 3.92857142857143  C 3.2 4.49739583333333  3.36875 5.02120535714286  3.70625 5.5  C 3.03125 5.52046130952381  2.47916666666667 5.78236607142857  2.05 6.28571428571429  L 1.2125 6.28571428571429  C 0.870833333333333 6.28571428571429  0.583333333333333 6.20284598214286  0.35 6.037109375  C 0.116666666666667 5.87137276785714  0 5.62890625  0 5.30970982142857  C 0 3.86514136904762  0.258333333333333 3.14285714285714  0.775 3.14285714285714  C 0.8 3.14285714285714  0.890625 3.18582589285714  1.046875 3.27176339285714  C 1.203125 3.35770089285714  1.40625 3.44466145833333  1.65625 3.53264508928571  C 1.90625 3.62062872023809  2.15416666666667 3.66462053571429  2.4 3.66462053571429  C 2.67916666666667 3.66462053571429  2.95625 3.61755952380952  3.23125 3.5234375  C 3.21041666666667 3.67485119047619  3.2 3.80989583333333  3.2 3.92857142857143  Z M 10.378125 8.77483258928572  C 10.3927083333333 8.98149181547619  10.4 9.19326636904762  10.4 9.41015625  C 10.4 9.90122767857143  10.2479166666667 10.2889694940476  9.94375 10.5733816964286  C 9.63958333333333 10.8577938988095  9.23541666666667 11  8.73125 11  L 3.26875 11  C 2.76458333333333 11  2.36041666666667 10.8577938988095  2.05625 10.5733816964286  C 1.75208333333333 10.2889694940476  1.6 9.90122767857143  1.6 9.41015625  C 1.6 9.19326636904762  1.60729166666667 8.98149181547619  1.621875 8.77483258928572  C 1.63645833333333 8.56817336309524  1.665625 8.34514508928572  1.709375 8.10574776785714  C 1.753125 7.86635044642857  1.80833333333333 7.64434523809524  1.875 7.43973214285714  C 1.94166666666667 7.23511904761905  2.03125 7.0356212797619  2.14375 6.84123883928571  C 2.25625 6.64685639880952  2.38541666666667 6.48111979166667  2.53125 6.34402901785714  C 2.67708333333333 6.20693824404762  2.85520833333333 6.09747023809524  3.065625 6.015625  C 3.27604166666667 5.93377976190476  3.50833333333333 5.89285714285714  3.7625 5.89285714285714  C 3.80416666666667 5.89285714285714  3.89375 5.93684895833333  4.03125 6.02483258928571  C 4.16875 6.11281622023809  4.32083333333333 6.21103050595238  4.4875 6.31947544642857  C 4.65416666666667 6.42792038690476  4.87708333333333 6.52613467261905  5.15625 6.61411830357143  C 5.43541666666667 6.70210193452381  5.71666666666667 6.74609375  6 6.74609375  C 6.28333333333333 6.74609375  6.56458333333333 6.70210193452381  6.84375 6.61411830357143  C 7.12291666666667 6.52613467261905  7.34583333333333 6.42792038690476  7.5125 6.31947544642857  C 7.67916666666667 6.21103050595238  7.83125 6.11281622023809  7.96875 6.02483258928571  C 8.10625 5.93684895833333  8.19583333333333 5.89285714285714  8.2375 5.89285714285714  C 8.49166666666667 5.89285714285714  8.72395833333334 5.93377976190476  8.934375 6.015625  C 9.14479166666667 6.09747023809524  9.32291666666667 6.20693824404762  9.46875 6.34402901785714  C 9.61458333333334 6.48111979166667  9.74375 6.64685639880952  9.85625 6.84123883928571  C 9.96875 7.0356212797619  10.0583333333333 7.23511904761905  10.125 7.43973214285714  C 10.1916666666667 7.64434523809524  10.246875 7.86635044642857  10.290625 8.10574776785714  C 10.334375 8.34514508928572  10.3635416666667 8.56817336309524  10.378125 8.77483258928572  Z M 3.53125 0.460379464285715  C 3.84375 0.767299107142857  4 1.13764880952381  4 1.57142857142857  C 4 2.00520833333333  3.84375 2.37555803571429  3.53125 2.68247767857143  C 3.21875 2.98939732142857  2.84166666666667 3.14285714285714  2.4 3.14285714285714  C 1.95833333333333 3.14285714285714  1.58125 2.98939732142857  1.26875 2.68247767857143  C 0.95625 2.37555803571429  0.8 2.00520833333333  0.8 1.57142857142857  C 0.8 1.13764880952381  0.95625 0.767299107142857  1.26875 0.460379464285715  C 1.58125 0.153459821428572  1.95833333333333 0  2.4 0  C 2.84166666666667 0  3.21875 0.153459821428572  3.53125 0.460379464285715  Z M 7.696875 2.26199776785714  C 8.165625 2.72237723214286  8.4 3.27790178571429  8.4 3.92857142857143  C 8.4 4.57924107142857  8.165625 5.134765625  7.696875 5.59514508928571  C 7.228125 6.05552455357143  6.6625 6.28571428571429  6 6.28571428571429  C 5.3375 6.28571428571429  4.771875 6.05552455357143  4.303125 5.59514508928571  C 3.834375 5.134765625  3.6 4.57924107142857  3.6 3.92857142857143  C 3.6 3.27790178571429  3.834375 2.72237723214286  4.303125 2.26199776785714  C 4.771875 1.80161830357143  5.3375 1.57142857142857  6 1.57142857142857  C 6.6625 1.57142857142857  7.228125 1.80161830357143  7.696875 2.26199776785714  Z M 11.225 3.14285714285714  C 11.7416666666667 3.14285714285714  12 3.86514136904762  12 5.30970982142857  C 12 5.62890625  11.8833333333333 5.87137276785714  11.65 6.037109375  C 11.4166666666667 6.20284598214286  11.1291666666667 6.28571428571429  10.7875 6.28571428571429  L 9.95 6.28571428571429  C 9.52083333333334 5.78236607142857  8.96875 5.52046130952381  8.29375 5.5  C 8.63125 5.02120535714286  8.8 4.49739583333333  8.8 3.92857142857143  C 8.8 3.80989583333333  8.78958333333333 3.67485119047619  8.76875 3.5234375  C 9.04375 3.61755952380952  9.32083333333333 3.66462053571429  9.6 3.66462053571429  C 9.84583333333333 3.66462053571429  10.09375 3.62062872023809  10.34375 3.53264508928571  C 10.59375 3.44466145833333  10.796875 3.35770089285714  10.953125 3.27176339285714  C 11.109375 3.18582589285714  11.2 3.14285714285714  11.225 3.14285714285714  Z M 10.73125 0.460379464285715  C 11.04375 0.767299107142857  11.2 1.13764880952381  11.2 1.57142857142857  C 11.2 2.00520833333333  11.04375 2.37555803571429  10.73125 2.68247767857143  C 10.41875 2.98939732142857  10.0416666666667 3.14285714285714  9.6 3.14285714285714  C 9.15833333333333 3.14285714285714  8.78125 2.98939732142857  8.46875 2.68247767857143  C 8.15625 2.37555803571429  8 2.00520833333333  8 1.57142857142857  C 8 1.13764880952381  8.15625 0.767299107142857  8.46875 0.460379464285715  C 8.78125 0.153459821428572  9.15833333333333 0  9.6 0  C 10.0416666666667 0  10.41875 0.153459821428572  10.73125 0.460379464285715  Z " fill-rule="nonzero" fill="#7f7f7f" stroke="none" transform="matrix(1 0 0 1 17 49 )" />
  </g>
</svg>