<?xml version="1.0" encoding="utf-8"?>
<svg version="1.1" xmlns:xlink="http://www.w3.org/1999/xlink" width="24px" height="26px" xmlns="http://www.w3.org/2000/svg">
  <g transform="matrix(1 0 0 1 -397 -3018 )">
    <path d="M 20.296875 21.703125  C 20.0989583333333 21.5052083333333  20 21.2708333333333  20 21  C 20 20.7291666666667  20.0989583333333 20.4947916666667  20.296875 20.296875  C 20.4947916666667 20.0989583333333  20.7291666666667 20  21 20  C 21.2708333333333 20  21.5052083333333 20.0989583333333  21.703125 20.296875  C 21.9010416666667 20.4947916666667  22 20.7291666666667  22 21  C 22 21.2708333333333  21.9010416666667 21.5052083333333  21.703125 21.703125  C 21.5052083333333 21.9010416666667  21.2708333333333 22  21 22  C 20.7291666666667 22  20.4947916666667 21.9010416666667  20.296875 21.703125  Z M 2.3359375 13.265625  C 2.11197916666666 12.7864583333333  2 12.3645833333333  2 12  C 2 11.46875  2.203125 11.0026041666667  2.609375 10.6015625  C 3.015625 10.2005208333333  3.47916666666666 10  4 10  L 9.5 10  C 9.5 9.39583333333333  9.25 8.56510416666666  8.75 7.5078125  C 8.25 6.45052083333333  8 5.61458333333333  8 5  C 8 3.97916666666666  8.16666666666667 3.22395833333333  8.5 2.734375  C 8.83333333333333 2.24479166666667  9.5 2  10.5 2  C 10.7708333333333 2.27083333333333  10.96875 2.71354166666667  11.09375 3.328125  C 11.21875 3.94270833333333  11.3776041666667 4.59635416666666  11.5703125 5.2890625  C 11.7630208333333 5.98177083333333  12.0729166666667 6.55208333333333  12.5 7  C 12.7291666666667 7.23958333333333  13.1302083333333 7.71354166666666  13.703125 8.421875  C 13.7447916666667 8.47395833333333  13.8645833333333 8.63020833333333  14.0625 8.890625  C 14.2604166666667 9.15104166666666  14.4244791666667 9.36458333333333  14.5546875 9.53125  C 14.6848958333333 9.69791666666667  14.8645833333333 9.91927083333333  15.09375 10.1953125  C 15.3229166666667 10.4713541666667  15.53125 10.7005208333333  15.71875 10.8828125  C 15.90625 11.0651041666667  16.1067708333333 11.25  16.3203125 11.4375  C 16.5338541666667 11.625  16.7421875 11.765625  16.9453125 11.859375  C 17.1484375 11.953125  17.3333333333333 12  17.5 12  L 18 12  L 18 22  L 17.5 22  C 17.3645833333333 22  17.2005208333333 22.015625  17.0078125 22.046875  C 16.8151041666667 22.078125  16.6432291666667 22.1119791666667  16.4921875 22.1484375  C 16.3411458333333 22.1848958333333  16.1432291666667 22.2421875  15.8984375 22.3203125  C 15.6536458333333 22.3984375  15.4713541666667 22.4583333333333  15.3515625 22.5  C 15.2317708333333 22.5416666666667  15.046875 22.6067708333333  14.796875 22.6953125  C 14.546875 22.7838541666667  14.3958333333333 22.8385416666667  14.34375 22.859375  C 12.1458333333333 23.6197916666667  10.3645833333333 24  9 24  L 7.109375 24  C 5.109375 24  4.109375 23.1302083333333  4.109375 21.390625  C 4.109375 21.1197916666667  4.13541666666666 20.828125  4.1875 20.515625  C 3.875 20.3489583333333  3.62760416666667 20.0755208333333  3.4453125 19.6953125  C 3.26302083333333 19.3151041666667  3.171875 18.9322916666667  3.171875 18.546875  C 3.171875 18.1614583333333  3.265625 17.8020833333333  3.453125 17.46875  C 2.90104166666667 16.9479166666667  2.625 16.328125  2.625 15.609375  C 2.625 15.3489583333333  2.67708333333333 15.0598958333333  2.78125 14.7421875  C 2.88541666666666 14.4244791666667  3.015625 14.1770833333333  3.171875 14  C 2.83854166666666 13.9895833333333  2.55989583333333 13.7447916666667  2.3359375 13.265625  Z M 1.1875 9.1875  C 0.395833333333337 9.97916666666666  0 10.9114583333333  0 11.984375  C 0 12.9114583333333  0.255208333333337 13.7604166666667  0.765624999999999 14.53125  C 0.671874999999999 14.875  0.624999999999999 15.234375  0.624999999999999 15.609375  C 0.624999999999999 16.4114583333333  0.822916666666663 17.1614583333333  1.21875 17.859375  C 1.1875 18.078125  1.171875 18.3020833333333  1.171875 18.53125  C 1.171875 19.5833333333333  1.484375 20.5104166666667  2.109375 21.3125  C 2.09895833333333 22.7604166666667  2.54166666666666 23.9036458333333  3.4375 24.7421875  C 4.33333333333333 25.5807291666667  5.515625 26  6.984375 26  L 7.546875 26  L 9 26  C 10 26  10.9869791666667 25.8828125  11.9609375 25.6484375  C 12.9348958333333 25.4140625  14.0625 25.0729166666667  15.34375 24.625  C 16.5520833333333 24.2083333333333  17.2708333333333 24  17.5 24  L 22 24  C 22.5520833333333 24  23.0234375 23.8046875  23.4140625 23.4140625  C 23.8046875 23.0234375  24 22.5520833333333  24 22  L 24 12  C 24 11.4479166666667  23.8046875 10.9765625  23.4140625 10.5859375  C 23.0234375 10.1953125  22.5520833333333 10  22 10  L 17.71875 10  C 17.34375 9.75  16.6302083333333 8.94270833333333  15.578125 7.578125  C 14.9739583333333 6.796875  14.4166666666667 6.13020833333333  13.90625 5.578125  C 13.65625 5.31770833333333  13.4713541666667 4.87239583333333  13.3515625 4.2421875  C 13.2317708333333 3.61197916666666  13.0729166666667 2.953125  12.875 2.265625  C 12.6770833333333 1.578125  12.3541666666667 1.015625  11.90625 0.578124999999999  C 11.5 0.192708333333335  11.03125 0  10.5 0  C 9.625 0  8.83854166666666 0.169270833333335  8.140625 0.5078125  C 7.44270833333333 0.846354166666665  6.91145833333333 1.375  6.546875 2.09375  C 6.18229166666667 2.8125  6 3.78125  6 5  C 6 5.96875  6.25 6.96875  6.75 8  L 4 8  C 2.91666666666666 8  1.97916666666666 8.39583333333333  1.1875 9.1875  Z " fill-rule="nonzero" fill="#7f7f7f" stroke="none" transform="matrix(1 0 0 1 397 3018 )" />
  </g>
</svg>