<?xml version="1.0" encoding="utf-8"?>
<svg version="1.1" xmlns:xlink="http://www.w3.org/1999/xlink" width="24px" height="21px" xmlns="http://www.w3.org/2000/svg">
  <g transform="matrix(1 0 0 1 -486 -3023 )">
    <path d="M 8.06919642857143 7.5126953125  C 8.40401785714286 7.8544921875  8.57142857142857 8.26692708333333  8.57142857142857 8.75  C 8.57142857142857 9.23307291666667  8.40401785714286 9.6455078125  8.06919642857143 9.9873046875  C 7.734375 10.3291015625  7.33035714285714 10.5  6.85714285714286 10.5  C 6.38392857142857 10.5  5.97991071428572 10.3291015625  5.64508928571429 9.9873046875  C 5.31026785714286 9.6455078125  5.14285714285714 9.23307291666667  5.14285714285714 8.75  C 5.14285714285714 8.26692708333333  5.31026785714286 7.8544921875  5.64508928571429 7.5126953125  C 5.97991071428572 7.1708984375  6.38392857142857 7  6.85714285714286 7  C 7.33035714285714 7  7.734375 7.1708984375  8.06919642857143 7.5126953125  Z M 13.2120535714286 7.5126953125  C 13.546875 7.8544921875  13.7142857142857 8.26692708333333  13.7142857142857 8.75  C 13.7142857142857 9.23307291666667  13.546875 9.6455078125  13.2120535714286 9.9873046875  C 12.8772321428571 10.3291015625  12.4732142857143 10.5  12 10.5  C 11.5267857142857 10.5  11.1227678571429 10.3291015625  10.7879464285714 9.9873046875  C 10.453125 9.6455078125  10.2857142857143 9.23307291666667  10.2857142857143 8.75  C 10.2857142857143 8.26692708333333  10.453125 7.8544921875  10.7879464285714 7.5126953125  C 11.1227678571429 7.1708984375  11.5267857142857 7  12 7  C 12.4732142857143 7  12.8772321428571 7.1708984375  13.2120535714286 7.5126953125  Z M 18.3549107142857 7.5126953125  C 18.6897321428571 7.8544921875  18.8571428571429 8.26692708333333  18.8571428571429 8.75  C 18.8571428571429 9.23307291666667  18.6897321428571 9.6455078125  18.3549107142857 9.9873046875  C 18.0200892857143 10.3291015625  17.6160714285714 10.5  17.1428571428571 10.5  C 16.6696428571429 10.5  16.265625 10.3291015625  15.9308035714286 9.9873046875  C 15.5959821428571 9.6455078125  15.4285714285714 9.23307291666667  15.4285714285714 8.75  C 15.4285714285714 8.26692708333333  15.5959821428571 7.8544921875  15.9308035714286 7.5126953125  C 16.265625 7.1708984375  16.6696428571429 7  17.1428571428571 7  C 17.6160714285714 7  18.0200892857143 7.1708984375  18.3549107142857 7.5126953125  Z M 17.109375 2.7001953125  C 15.5245535714286 2.06673177083333  13.8214285714286 1.75  12 1.75  C 10.1785714285714 1.75  8.47544642857143 2.06673177083333  6.890625 2.7001953125  C 5.30580357142857 3.33365885416667  4.046875 4.18815104166667  3.11383928571429 5.263671875  C 2.18080357142857 6.33919270833333  1.71428571428571 7.50130208333333  1.71428571428571 8.75  C 1.71428571428571 9.77083333333333  2.03348214285714 10.7438151041667  2.671875 11.6689453125  C 3.31026785714286 12.5940755208333  4.20982142857143 13.3938802083333  5.37053571428571 14.068359375  L 6.53571428571428 14.751953125  L 6.17410714285714 16.064453125  C 5.95982142857143 16.8938802083333  5.64732142857143 17.677734375  5.23660714285714 18.416015625  C 6.59375 17.841796875  7.82142857142857 17.0625  8.91964285714286 16.078125  L 9.49553571428572 15.55859375  L 10.2589285714286 15.640625  C 10.875 15.7135416666667  11.4553571428571 15.75  12 15.75  C 13.8214285714286 15.75  15.5245535714286 15.4332682291667  17.109375 14.7998046875  C 18.6941964285714 14.1663411458333  19.953125 13.3118489583333  20.8861607142857 12.236328125  C 21.8191964285714 11.1608072916667  22.2857142857143 9.99869791666667  22.2857142857143 8.75  C 22.2857142857143 7.50130208333333  21.8191964285714 6.33919270833333  20.8861607142857 5.263671875  C 19.953125 4.18815104166667  18.6941964285714 3.33365885416667  17.109375 2.7001953125  Z M 23.0491071428571 5.3525390625  C 23.6830357142857 6.4326171875  24 7.56510416666667  24 8.75  C 24 10.3359375  23.4642857142857 11.8011067708333  22.3928571428571 13.1455078125  C 21.3214285714286 14.4899088541667  19.8660714285714 15.5517578125  18.0267857142857 16.3310546875  C 16.1875 17.1103515625  14.1785714285714 17.5  12 17.5  C 11.375 17.5  10.7276785714286 17.4635416666667  10.0580357142857 17.390625  C 8.29017857142857 18.9856770833333  6.23660714285714 20.0885416666667  3.89732142857143 20.69921875  C 3.45982142857143 20.8268229166667  2.95089285714286 20.9270833333333  2.37053571428571 21  L 2.30357142857143 21  C 2.16964285714286 21  2.04910714285714 20.9521484375  1.94196428571429 20.8564453125  C 1.83482142857143 20.7607421875  1.76339285714286 20.6354166666667  1.72767857142857 20.48046875  L 1.72767857142857 20.466796875  C 1.70089285714286 20.4303385416667  1.69866071428571 20.3756510416667  1.72098214285714 20.302734375  C 1.74330357142857 20.2298177083333  1.75223214285714 20.1842447916667  1.74776785714286 20.166015625  C 1.74330357142857 20.1477864583333  1.76339285714286 20.1044921875  1.80803571428571 20.0361328125  L 1.88839285714286 19.9130859375  C 1.88839285714286 19.9130859375  1.91964285714286 19.8743489583333  1.98214285714286 19.796875  C 2.04464285714286 19.7194010416667  2.08035714285714 19.6783854166667  2.08928571428571 19.673828125  C 2.15178571428571 19.6009114583333  2.29017857142857 19.4436848958333  2.50446428571429 19.2021484375  C 2.71875 18.9606119791667  2.87276785714286 18.7874348958333  2.96651785714286 18.6826171875  C 3.06026785714286 18.5777994791667  3.19866071428571 18.3977864583333  3.38169642857143 18.142578125  C 3.56473214285714 17.8873697916667  3.70982142857143 17.6549479166667  3.81696428571429 17.4453125  C 3.92410714285714 17.2356770833333  4.04464285714286 16.966796875  4.17857142857143 16.638671875  C 4.3125 16.310546875  4.42857142857143 15.9641927083333  4.52678571428571 15.599609375  C 3.125 14.7884114583333  2.02008928571429 13.7858072916667  1.21205357142857 12.591796875  C 0.404017857142857 11.3977864583333  0 10.1171875  0 8.75  C 0 7.56510416666667  0.316964285714286 6.4326171875  0.950892857142857 5.3525390625  C 1.58482142857143 4.2724609375  2.4375 3.34049479166666  3.50892857142857 2.556640625  C 4.58035714285714 1.77278645833333  5.85714285714286 1.15071614583333  7.33928571428572 0.690429687499999  C 8.82142857142857 0.230143229166666  10.375 0  12 0  C 13.625 0  15.1785714285714 0.230143229166666  16.6607142857143 0.690429687499999  C 18.1428571428571 1.15071614583333  19.4196428571429 1.77278645833333  20.4910714285714 2.556640625  C 21.5625 3.34049479166666  22.4151785714286 4.2724609375  23.0491071428571 5.3525390625  Z " fill-rule="nonzero" fill="#7f7f7f" stroke="none" transform="matrix(1 0 0 1 486 3023 )" />
  </g>
</svg>