<?xml version="1.0" encoding="utf-8"?>
<svg version="1.1" xmlns:xlink="http://www.w3.org/1999/xlink" width="25px" height="23px" xmlns="http://www.w3.org/2000/svg">
  <g transform="matrix(1 0 0 1 -614 -3022 )">
    <path d="M 24.7349330357143 7.633125  C 24.9116443452381 7.81520833333333  25 8.03083333333333  25 8.28  C 25 8.52916666666667  24.9116443452381 8.74479166666666  24.7349330357143 8.926875  L 17.5920758928571 16.286875  C 17.4153645833333 16.4689583333333  17.2061011904762 16.56  16.9642857142857 16.56  C 16.7224702380952 16.56  16.5132068452381 16.4689583333333  16.3364955357143 16.286875  C 16.1597842261905 16.1047916666667  16.0714285714286 15.8891666666667  16.0714285714286 15.64  L 16.0714285714286 11.96  L 12.9464285714286 11.96  C 12.0349702380952 11.96  11.2188430059524 11.98875  10.498046875 12.04625  C 9.77725074404762 12.10375  9.06110491071429 12.2067708333333  8.349609375 12.3553125  C 7.63811383928571 12.5038541666667  7.01962425595238 12.7075  6.494140625 12.96625  C 5.96865699404762 13.225  5.47805059523809 13.5580208333333  5.02232142857143 13.9653125  C 4.56659226190476 14.3726041666667  4.19456845238095 14.8565625  3.90625 15.4171875  C 3.61793154761905 15.9778125  3.39239211309524 16.6414583333333  3.22963169642857 17.408125  C 3.0668712797619 18.1747916666667  2.98549107142857 19.0420833333333  2.98549107142857 20.01  C 2.98549107142857 20.5370833333333  3.00874255952381 21.1264583333333  3.05524553571429 21.778125  C 3.05524553571429 21.835625  3.06687127976191 21.9482291666667  3.09012276785714 22.1159375  C 3.11337425595238 22.2836458333333  3.125 22.410625  3.125 22.496875  C 3.125 22.640625  3.0854724702381 22.7604166666667  3.00641741071429 22.85625  C 2.92736235119048 22.9520833333333  2.81808035714286 23  2.67857142857143 23  C 2.5297619047619 23  2.39955357142857 22.9185416666667  2.28794642857143 22.755625  C 2.22284226190476 22.669375  2.16238839285714 22.5639583333333  2.10658482142857 22.439375  C 2.05078125 22.3147916666667  1.98800223214286 22.1710416666667  1.91824776785714 22.008125  C 1.84849330357143 21.8452083333333  1.79966517857143 21.7302083333333  1.77176339285714 21.663125  C 0.590587797619048 18.931875  0 16.7708333333333  0 15.18  C 0 13.2729166666667  0.246465773809524 11.6772916666667  0.739397321428571 10.393125  C 2.24609375 6.53104166666667  6.31510416666667 4.6  12.9464285714286 4.6  L 16.0714285714286 4.6  L 16.0714285714286 0.920000000000001  C 16.0714285714286 0.670833333333331  16.1597842261905 0.45520833333333  16.3364955357143 0.273124999999999  C 16.5132068452381 0.0910416666666656  16.7224702380952 0  16.9642857142857 0  C 17.2061011904762 0  17.4153645833333 0.0910416666666656  17.5920758928571 0.273124999999999  L 24.7349330357143 7.633125  Z " fill-rule="nonzero" fill="#7f7f7f" stroke="none" transform="matrix(1 0 0 1 614 3022 )" />
  </g>
</svg>