<?xml version="1.0" encoding="utf-8"?>
<svg version="1.1" xmlns:xlink="http://www.w3.org/1999/xlink" width="25px" height="22px" xmlns="http://www.w3.org/2000/svg">
  <g transform="matrix(1 0 0 1 -993 -243 )">
    <path d="M 10.1996527777778 12.8333333333333  L 13.8744212962963 12.8333333333333  L 14.8003472222222 9.16666666666667  L 11.1255787037037 9.16666666666667  L 10.1996527777778 12.8333333333333  Z M 24.8987268518519 5.21354166666667  C 24.9855324074074 5.328125  25.0144675925926 5.46180555555555  24.9855324074074 5.61458333333333  L 24.1753472222222 8.82291666666667  C 24.1078317901235 9.05208333333333  23.9583333333333 9.16666666666667  23.7268518518519 9.16666666666667  L 18.9959490740741 9.16666666666667  L 18.0700231481481 12.8333333333333  L 22.5694444444444 12.8333333333333  C 22.7141203703704 12.8333333333333  22.8346836419753 12.890625  22.9311342592593 13.0052083333333  C 23.0275848765432 13.1388888888889  23.0565200617284 13.2725694444444  23.0179398148148 13.40625  L 22.2077546296296 16.6145833333333  C 22.1595293209877 16.84375  22.0100308641975 16.9583333333333  21.7592592592593 16.9583333333333  L 17.0283564814815 16.9583333333333  L 15.8564814814815 21.65625  C 15.7889660493827 21.8854166666667  15.6394675925926 22  15.4079861111111 22  L 12.1672453703704 22  C 12.0129243827161 22  11.8875385802469 21.9427083333333  11.791087962963 21.828125  C 11.7042824074074 21.7135416666667  11.6753472222222 21.5798611111111  11.7042824074074 21.4270833333333  L 12.8327546296296 16.9583333333333  L 9.15798611111111 16.9583333333333  L 7.98611111111111 21.65625  C 7.91859567901235 21.8854166666667  7.76909722222222 22  7.53761574074074 22  L 4.28240740740741 22  C 4.13773148148148 22  4.01716820987654 21.9427083333333  3.92071759259259 21.828125  C 3.83391203703704 21.7135416666667  3.80497685185185 21.5798611111111  3.83391203703704 21.4270833333333  L 4.96238425925926 16.9583333333333  L 0.462962962962963 16.9583333333333  C 0.318287037037037 16.9583333333333  0.197723765432099 16.9010416666667  0.101273148148148 16.7864583333333  C 0.0144675925925926 16.671875  -0.0144675925925925 16.5381944444444  0.0144675925925926 16.3854166666667  L 0.824652777777778 13.1770833333333  C 0.892168209876543 12.9479166666667  1.04166666666667 12.8333333333333  1.27314814814815 12.8333333333333  L 6.00405092592593 12.8333333333333  L 6.92997685185185 9.16666666666667  L 2.43055555555556 9.16666666666667  C 2.28587962962963 9.16666666666667  2.16531635802469 9.109375  2.06886574074074 8.99479166666667  C 1.97241512345679 8.86111111111111  1.94347993827161 8.72743055555555  1.98206018518519 8.59375  L 2.79224537037037 5.38541666666667  C 2.84047067901235 5.15625  2.98996913580247 5.04166666666667  3.24074074074074 5.04166666666667  L 7.97164351851852 5.04166666666667  L 9.14351851851852 0.34375  C 9.21103395061728 0.114583333333334  9.36535493827161 0  9.60648148148148 0  L 12.8472222222222 0  C 12.9918981481481 0  13.1124614197531 0.0572916666666659  13.208912037037 0.171875  C 13.2957175925926 0.286458333333334  13.3246527777778 0.420138888888889  13.2957175925926 0.572916666666666  L 12.1672453703704 5.04166666666667  L 15.8420138888889 5.04166666666667  L 17.0138888888889 0.34375  C 17.0814043209877 0.114583333333334  17.235725308642 0  17.4768518518519 0  L 20.7175925925926 0  C 20.8622685185185 0  20.9828317901235 0.0572916666666659  21.0792824074074 0.171875  C 21.166087962963 0.286458333333334  21.1950231481481 0.420138888888889  21.166087962963 0.572916666666666  L 20.0376157407407 5.04166666666667  L 24.537037037037 5.04166666666667  C 24.681712962963 5.04166666666667  24.8022762345679 5.09895833333333  24.8987268518519 5.21354166666667  Z " fill-rule="nonzero" fill="#d7d7d7" stroke="none" transform="matrix(1 0 0 1 993 243 )" />
  </g>
</svg>